<svg xmlns="http://www.w3.org/2000/svg" width="171" height="109.566" viewBox="0 0 171 109.566"><defs><style>.a{fill:#e6e6e6}.b{fill:#fff}</style></defs><g transform="translate(-598 -1279.434)"><path class="a" d="M598.073 1279.531H769V1389H598.073z"/><path class="b" d="M602.961 1293.261h161.152v89.263H602.961z"/><path fill="#fa8b18" d="M598 1279.434h170.927v7.262H598z"/><circle class="b" cx="1.346" cy="1.346" r="1.346" transform="translate(602.05 1281.801)"/><circle class="b" cx="1.346" cy="1.346" r="1.346" transform="translate(607.159 1281.801)"/><circle class="b" cx="1.346" cy="1.346" r="1.346" transform="translate(612.268 1281.801)"/><path class="a" d="M622.788 1300.603h31.519v34.195h-31.519zm44.989 0h31.519v34.195h-31.519zm44.988 0h31.519v34.195h-31.519zm-89.977 40.385h31.519v34.195h-31.519zm44.989 0h31.519v34.195h-31.519zm44.988 0h31.519v34.195h-31.519z"/><path class="b" d="M675.395 1349.776l5.759-2.277.67 11.384s1.205 3.482.8 4.821c0 0 .268 2.277-.4 2.411a11.084 11.084 0 01-2.678.268c-.133-.134-.134-.536-.134-.536a3.733 3.733 0 00-1.473 2.009s-5.625 1.741-5.759.134 2.812-2.947 2.812-2.947l2.277-3.482zm12.188 0l5.758-2.277.67 11.384s1.205 3.482.8 4.821c0 0 .268 2.277-.4 2.411a11.084 11.084 0 01-2.678.268c-.133-.134-.134-.536-.134-.536a3.733 3.733 0 00-1.473 2.009s-5.625 1.741-5.759.134 2.812-2.947 2.812-2.947l2.277-3.482z"/><path d="M688.146 1305.813s-1.226 3.426.195 4.971l-1.185 4.07s4.208 12.625 3.006 14.389c0 0-4.489 2.244-13.468-.8l3.647-14.148-.521-5.972.721-2.806 1.6-.159s-.962 3.607.8 4.168 3.488-4.076 3.488-4.076z"/><path class="b" d="M631.516 1327.934l1.547.633 7.386-9.707 2.321 11.395 1.547-.281c.993-9.824 1.8-19.844.809-24.583l-5.733-.246-2.6 8.3-1.266 5.627zm93.92-22.621s-2.112 2.936-2.009 4.121 1.442 20.5 1.442 20.5l3.142.155-.928-13.907.773-3.76 1.906 17.513 3.863.1-3.451-22.715-.67-2.009z"/><path d="M737.371 1352.611a4.363 4.363 0 00-2.45-1.233 13.2 13.2 0 00-2.863-.55l-1.071-.853-3.292 1.709-1.85-1.259-.859.3a16.444 16.444 0 00-2.667.317c-.516.019-1.176.051-1.914.108-2.585.2-2.784 6.893-2.784 6.893a10.565 10.565 0 013.742-.783l.7 8.007a37.049 37.049 0 0111.267.928l1.832-6.294 4.265-1.659s-.73-4.04-2.056-5.631z"/><path class="b" d="M645.838 1348.799a3.594 3.594 0 00-2.019-1.016 10.847 10.847 0 00-2.36-.453l-.883-.7-2.712 1.408-1.524-1.037-.708.251a13.558 13.558 0 00-2.2.261 38.24 38.24 0 00-1.577.089c-2.13.164-2.294 5.679-2.294 5.679a8.706 8.706 0 013.083-.646l.576 16.149a30.517 30.517 0 019.283.765l1.509-14.738 3.515-1.367s-.597-3.334-1.689-4.645z"/></g></svg>