<svg xmlns="http://www.w3.org/2000/svg" width="162.799" height="115.277" viewBox="0 0 162.799 115.277"><defs><style>.a{fill:#fff}.b{fill:#e4e4e4}.c{fill:#fa8b18}.d{fill:#e5e5e5}</style></defs><g transform="translate(26.283 -170.884)"><path class="a" d="M-25.141 283.225v-109.4a1.8 1.8 0 011.8-1.8H133.58a1.8 1.8 0 011.8 1.8v109.4a1.8 1.8 0 01-1.8 1.8H-23.347a1.8 1.8 0 01-1.794-1.8z"/><path class="b" d="M-23.346 286.161a2.944 2.944 0 01-2.937-2.936V173.821a2.944 2.944 0 012.936-2.937h156.926a2.944 2.944 0 012.937 2.936v109.401a2.944 2.944 0 01-2.936 2.937zm-.654-2.938a.657.657 0 00.655.655h156.924a.657.657 0 00.654-.655V173.821a.657.657 0 00-.655-.654H-23.346a.657.657 0 00-.654.655z"/><path class="b" d="M107.805 197.581a1.424 1.424 0 110 2.847h-35.69a1.424 1.424 0 01-.047-2.847h35.737zm0 10.06a1.424 1.424 0 110 2.847h-35.69a1.424 1.424 0 01-.047-2.847h35.737zm0 10.064a1.424 1.424 0 110 2.847h-35.69a1.424 1.424 0 01-.047-2.847h35.737z"/><path class="c" d="M85.063 233.259a4.874 4.874 0 114.874 4.874 4.874 4.874 0 01-4.874-4.874z"/><path class="a" d="M88.013 232.778h1.442v-1.442a.481.481 0 01.962 0v1.444h1.442a.481.481 0 010 .962h-1.442v1.442a.481.481 0 11-.961 0v-1.442h-1.442a.481.481 0 110-.962z"/><path class="b" d="M39.396 210.525a19.016 19.016 0 01-1.2 6.668 18.5 18.5 0 01-1.325 2.824 19.1 19.1 0 01-33.151 0q-.254-.44-.482-.894a19.1 19.1 0 1136.156-8.6z"/><circle class="c" cx="3.651" cy="3.651" r="3.651" transform="translate(17.639 206.446)"/><path class="a" d="M3.24 219.123c1.609-1.739 3.759-4.5 5.776-2.5 1.012.941 2.6 3.272 4.113 1.748l11.842-11.843a2.351 2.351 0 013.362.06l9.86 10.605a18.5 18.5 0 01-1.325 2.824H3.722z"/><path class="c" d="M36.882 263.795a.913.913 0 100 1.826h9.582a.913.913 0 000-1.826z"/><path class="d" d="M-6.288 250.382a.913.913 0 000 1.826h53.172a.913.913 0 000-1.826zm0 6.703a.913.913 0 000 1.826h53.172a.913.913 0 000-1.826z"/><path class="c" d="M106.521 263.795a.913.913 0 100 1.826h9.582a.913.913 0 100-1.826z"/><path class="d" d="M63.351 250.382a.913.913 0 000 1.826h53.172a.913.913 0 000-1.826zm0 6.703a.913.913 0 000 1.826h53.172a.913.913 0 000-1.826z"/></g></svg>