<svg xmlns="http://www.w3.org/2000/svg" width="180" height="111.004" viewBox="0 0 180 111.004"><defs><style>.a{fill:#ccc}.b{fill:#fa8b18}</style></defs><path class="a" d="M125.209 23.357l.345-.362 23.663 22.528-.345.362z"/><path class="a" d="M149.255 43.08l-.5.03.151 2.461-2.466-.03-.005.5 3 .036zm-21.262-20.243l-.005.5-2.466-.03.151 2.461-.5.03-.182-3z"/><circle class="a" cx="2.751" cy="2.751" r="2.751" transform="translate(134.464 31.689)"/><path class="a" d="M31.282 45.523l23.663-22.528.345.362-23.663 22.528z"/><path class="a" d="M31.062 46.078l3-.036-.006-.5-2.466.03.151-2.461-.5-.03zM55.51 22.801l-.183 3-.5-.03.151-2.461-2.466.03-.005-.5z"/><circle class="a" cx="2.751" cy="2.751" r="2.751" transform="translate(40.536 31.689)"/><path d="M110.754 57.011H69.246a2.253 2.253 0 01-2.25-2.25V2.25A2.253 2.253 0 0169.246 0h41.508a2.253 2.253 0 012.25 2.25v52.51a2.253 2.253 0 01-2.25 2.251zM69.246.5a1.752 1.752 0 00-1.75 1.75v52.51a1.752 1.752 0 001.75 1.75h41.508a1.752 1.752 0 001.75-1.75V2.25a1.752 1.752 0 00-1.75-1.75z"/><path class="b" d="M86.547 25.241H77.41a1.126 1.126 0 01-1.125-1.125V13.333a1.126 1.126 0 011.125-1.125h9.137a1.126 1.126 0 011.125 1.125v10.782a1.126 1.126 0 01-1.125 1.126z"/><path class="a" d="M104.301 30.241h-9.137a1.127 1.127 0 01-1.125-1.125V18.333a1.127 1.127 0 011.125-1.125h9.137a1.126 1.126 0 011.125 1.125v10.782a1.126 1.126 0 01-1.125 1.126z"/><path d="M90.048 45.494h-9.137a1.127 1.127 0 01-1.125-1.125V33.586a1.126 1.126 0 011.125-1.125h9.137a1.126 1.126 0 011.125 1.125v10.781a1.126 1.126 0 01-1.125 1.127z" fill="#ff6584"/><path d="M177.75 111.004h-41.508a2.253 2.253 0 01-2.25-2.25v-52.51a2.253 2.253 0 012.25-2.25h41.508a2.253 2.253 0 012.25 2.251v52.51a2.253 2.253 0 01-2.25 2.249zm-41.508-56.511a1.752 1.752 0 00-1.75 1.75v52.51a1.752 1.752 0 001.75 1.75h41.508a1.752 1.752 0 001.75-1.75v-52.51a1.752 1.752 0 00-1.75-1.75z" fill="#3f3d56"/><path class="b" d="M164.122 65.621h-14.253a1 1 0 010-2h14.253a1 1 0 010 2z"/><path class="a" d="M171.124 75.123h-28.256a1 1 0 110-2h28.255a1 1 0 010 2zm0 5.251h-28.256a1 1 0 110-2h28.255a1 1 0 010 2zm0 5.25h-28.256a1 1 0 010-2h28.255a1 1 0 010 2zm0 5.252h-28.256a1 1 0 010-2h28.255a1 1 0 010 2zm0 5.251h-28.256a1 1 0 010-2h28.255a1 1 0 010 2zm0 5.25h-28.256a1 1 0 110-2h28.255a1 1 0 010 2z"/><path d="M43.758 111.004H2.25a2.253 2.253 0 01-2.25-2.25v-52.51a2.253 2.253 0 012.25-2.25h41.508a2.253 2.253 0 012.25 2.25v52.51a2.253 2.253 0 01-2.25 2.25zM2.25 54.494a1.752 1.752 0 00-1.75 1.75v52.51a1.752 1.752 0 001.75 1.75h41.508a1.752 1.752 0 001.75-1.75v-52.51a1.752 1.752 0 00-1.75-1.75z"/><path d="M37.175 66.391h-12.5a1 1 0 010-2h12.5a1 1 0 010 2zm0 5.251h-12.5a1 1 0 010-2h12.5a1 1 0 010 2z"/><path class="b" d="M18.258 74.632H9.121a1.126 1.126 0 01-1.125-1.125V62.721a1.127 1.127 0 011.125-1.125h9.137a1.127 1.127 0 011.125 1.125v10.782a1.127 1.127 0 01-1.125 1.129z"/><path class="a" d="M37.089 82.394H8.833a1 1 0 110-2h28.255a1 1 0 110 2zm0 5.251H8.833a1 1 0 110-2h28.255a1 1 0 110 2zm0 5.251H8.833a1 1 0 110-2h28.255a1 1 0 110 2zm0 5.251H8.833a1 1 0 110-2h28.255a1 1 0 110 2zm0 5.251H8.833a1 1 0 110-2h28.255a1 1 0 110 2z"/></svg>