<svg xmlns="http://www.w3.org/2000/svg" width="166.601" height="108.641" viewBox="0 0 166.601 108.641"><defs><style>.a{fill:none;stroke:#3f3d56;stroke-miterlimit:10}.b{fill:#fa8b18}.c{fill:#f2f2f2}</style></defs><g transform="translate(-139.671)"><path class="a" d="M206.555 19.377h89.109v18.334h-89.109zM153.379 45.42a15.187 15.187 0 0112.869-6.649c8.166 0 14.786 5.87 14.786 13.11a12.82 12.82 0 01-6.792 11.031"/><path class="b" d="M200.247 22.925h89.109v18.334h-89.109z"/><circle class="b" cx="1.38" cy="1.38" r="1.38" transform="translate(142.537 2.669)"/><circle class="b" cx="1.38" cy="1.38" r="1.38" transform="translate(147.268 2.669)"/><circle class="b" cx="1.38" cy="1.38" r="1.38" transform="translate(152 2.669)"/><path class="a" d="M140.171.5h165.601v107.641H140.171zm0 5.98h165.601"/><circle class="a" cx="1.38" cy="1.38" r="1.38" transform="translate(142.931 2.077)"/><circle class="a" cx="1.38" cy="1.38" r="1.38" transform="translate(147.662 2.077)"/><circle class="a" cx="1.38" cy="1.38" r="1.38" transform="translate(152.394 2.077)"/><path class="a" d="M192.163 6.48v101.813"/><path class="c" d="M210.794 56.538h28.98v3.943h-28.98zm45.54 0h28.98v3.943h-28.98z"/><path class="a" d="M212.371 54.567h28.98v3.943h-28.98z"/><path class="c" d="M210.794 87.095h28.98v3.943h-28.98z"/><path class="a" d="M212.371 85.124h28.98v3.943h-28.98z"/><path class="c" d="M210.893 71.423h74.52v3.943h-74.52z"/><path class="a" d="M212.47 69.845h74.52v3.943h-74.52zm45.441-15.278h28.98v3.943h-28.98z"/><path class="b" d="M148.281 54.645c0 5.152 3.385 9.6 8.293 11.713l-7.019-17.01a11.708 11.708 0 00-1.274 5.297zm24.647-.657a6.31 6.31 0 00-1.213-3.589 5.737 5.737 0 01-1.445-3.052 2.394 2.394 0 012.47-2.31c.065 0 .127.007.191.01a15.766 15.766 0 00-9.936-3.417 15.265 15.265 0 00-12.294 5.866c.345.009.671.015.947.015 1.539 0 3.921-.165 3.921-.165a.541.541 0 11.095 1.072s-.8.083-1.684.124l5.358 14.1 3.22-8.542-2.293-5.556c-.792-.041-1.543-.124-1.543-.124a.541.541 0 11.093-1.072s2.43.165 3.876.165c1.539 0 3.921-.165 3.921-.165a.541.541 0 11.094 1.072s-.8.083-1.684.124l5.317 13.991 1.467-4.338a14.206 14.206 0 001.12-4.207z"/><path class="b" d="M163.254 55.779l-4.415 11.347a16.55 16.55 0 009.043-.207 1.062 1.062 0 01-.1-.179zm12.652-7.383a8.853 8.853 0 01.1 1.338 11.069 11.069 0 01-1.119 4.662l-4.494 11.494a12.822 12.822 0 007.317-11.25 11.786 11.786 0 00-1.804-6.244z"/></g></svg>