<svg xmlns="http://www.w3.org/2000/svg" width="171.824" height="110.769" viewBox="0 0 171.824 110.769"><defs><style>.b{fill:#fff}</style></defs><g transform="translate(-252.552)"><path d="M420.17 110.769H256.817a4.211 4.211 0 01-4.206-4.206V5.836a3.085 3.085 0 013.081-3.081h165.547a3.138 3.138 0 013.135 3.135v100.673a4.211 4.211 0 01-4.204 4.206z" fill="#f2f2f2"/><path class="b" d="M414.889 105.459H262.648a3.929 3.929 0 01-4.047-3.79V13.955a2.913 2.913 0 013-2.811h154.287a2.961 2.961 0 013.049 2.857v87.67a3.929 3.929 0 01-4.048 3.788z"/><path d="M424.318 6.36H252.552V4.219A4.225 4.225 0 01256.773 0h163.323a4.225 4.225 0 014.221 4.219z"/><circle class="b" cx="1.092" cy="1.092" r="1.092" transform="translate(259.131 2.095)"/><circle class="b" cx="1.092" cy="1.092" r="1.092" transform="translate(263.276 2.095)"/><circle class="b" cx="1.092" cy="1.092" r="1.092" transform="translate(267.42 2.095)"/><path d="M335.157 30.322h-29.775a1.674 1.674 0 110-3.348h29.775a1.674 1.674 0 110 3.348zm36.998 0H342.38a1.674 1.674 0 110-3.348h29.775a1.674 1.674 0 110 3.348zm0 6.343h-51.8a1.674 1.674 0 010-3.347h51.8a1.674 1.674 0 110 3.347zm-36.998-12.773h-29.775a1.674 1.674 0 110-3.348h29.775a1.674 1.674 0 110 3.348zm16.385.088h-8.457a1.674 1.674 0 110-3.347h8.457a1.674 1.674 0 110 3.347zm-37.704 12.685h-8.456a1.674 1.674 0 110-3.347h8.457a1.674 1.674 0 110 3.347zm21.319 53.05h-29.775a1.674 1.674 0 110-3.347h29.775a1.674 1.674 0 110 3.347zm36.998 0H342.38a1.674 1.674 0 110-3.347h29.775a1.674 1.674 0 110 3.347zm0 6.343h-51.8a1.674 1.674 0 010-3.348h51.8a1.674 1.674 0 010 3.348zm-36.998-12.772h-29.775a1.674 1.674 0 110-3.348h29.775a1.674 1.674 0 110 3.348zm16.385.087h-8.457a1.674 1.674 0 110-3.348h8.457a1.674 1.674 0 110 3.348zm-37.704 12.685h-8.456a1.674 1.674 0 010-3.348h8.457a1.674 1.674 0 010 3.348z" fill="#ccc"/><path d="M327.38 71.746a2.4 2.4 0 01-1.688-.691l-11.193-11.049a2.333 2.333 0 010-3.32l11.147-11.008a2.473 2.473 0 013.478.011 2.47 2.47 0 010 3.489l-8.283 8.284a1.38 1.38 0 000 1.949l8.239 8.239a2.4 2.4 0 01-1.7 4.1zm17.834 0a2.4 2.4 0 01-1.7-4.1l8.239-8.239a1.38 1.38 0 000-1.949l-8.283-8.284a2.467 2.467 0 010-3.489 2.473 2.473 0 013.478-.011l11.147 11.008a2.333 2.333 0 010 3.32l-11.192 11.054a2.4 2.4 0 01-1.689.69z" fill="#fa8b18"/></g></svg>