<svg xmlns="http://www.w3.org/2000/svg" width="146.236" height="117.811" viewBox="0 0 146.236 117.811"><defs><style>.b{fill:#f2f2f2}</style></defs><g transform="translate(-525 -1260.413)"><path d="M536.03 1369.25c3.293 6.106 10.28 8.727 10.28 8.727s1.65-7.279-1.643-13.385-10.28-8.727-10.28-8.727-1.649 7.279 1.643 13.385z"/><path d="M538.293 1367.242c5.944 3.576 8.234 10.68 8.234 10.68s-7.348 1.305-13.293-2.271S525 1364.97 525 1364.97s7.348-1.305 13.293 2.272z" fill="#fa8b18"/><path class="b" d="M645.604 1260.413h.53v4.901h-.53z"/><path d="M620.914 1366.454h-62.726v-.45h62.278v-21.889h-57l-2.769-5.769.407-.2 2.646 5.513h57.164z"/><circle cx="4.739" cy="4.739" r="4.739" transform="translate(561.798 1368.034)"/><circle cx="4.739" cy="4.739" r="4.739" transform="translate(608.507 1368.034)"/><circle cx="2.933" cy="2.933" r="2.933" transform="translate(665.369 1269.201)"/><path d="M627.626 1336.671h-70.512l-15.256-49.867h101.48l-.092.293zm-70.174-.451h69.843l15.427-48.965h-100.25z"/><path d="M622.122 1334.075h-61.93l-13.4-44.227h89.13l-.081.26z" fill="#fff"/><path d="M644.602 1282.346l-.436-.116 2.978-11.224h17.323v.451h-16.976zm-97.81 19.574h91.475v.451h-91.475zm5.086 16.626h81.15v.451h-81.15z"/><path d="M592.373 1287.027h.451v49.416h-.451zm17.417 49.401l3.219-49.422.45.03-3.219 49.421zm-38.063-49.387l.45-.03 3.22 49.417-.45.03zM525 1377.899h145.677v.325H525z"/><path class="b" d="M551.028 1269.156h.53v4.901h-.53zm16.16 0h.53v4.901h-.53z"/></g></svg>