<svg xmlns="http://www.w3.org/2000/svg" xmlns:xlink="http://www.w3.org/1999/xlink" width="645.72" height="451.53" viewBox="0 0 645.72 451.53"><defs><linearGradient id="a" x1=".5" y1="1" x2=".5" gradientUnits="objectBoundingBox"><stop offset="0" stop-color="gray" stop-opacity=".251"/><stop offset=".54" stop-color="gray" stop-opacity=".122"/><stop offset="1" stop-color="gray" stop-opacity=".102"/></linearGradient><linearGradient id="b" x1=".5" x2=".5" y2="0" xlink:href="#a"/><linearGradient id="c" x1=".5" x2=".5" y2="0" xlink:href="#a"/><linearGradient id="d" x1="1.096" x2="1.096" y2="0" xlink:href="#a"/><linearGradient id="e" x1=".5" x2=".5" y2="0" xlink:href="#a"/><style>.a,.g{fill:#f9a826}.a,.f{opacity:.1}.c{fill:#d38884}.d{fill:#444053}.e{fill:#b07473}.h{fill:#67647e}.i{fill:#585268}.j{fill:#e1e7ef}.l{fill:#a27772}.m{fill:#cc818c}.q{fill:#65617d}.r{fill:#fbbebe}.s{opacity:.05}.v{fill:#fdc2cc}.w{fill:#d39999}.x{fill:#7e5659}.y{fill:#865a61}.ab{fill:#fff;opacity:.5}.ac{fill:#3f2b3b}.ad{fill:none;stroke:#3f2b3b;stroke-miterlimit:10}</style></defs><g transform="translate(.013 -.004)"><path class="a" d="M5.876 219c10.42 33.605 32.481 62.655 67.347 76.734 72.487 29.265 235.865 14.17 357.818-3.152 63.1-8.963 118.52-33.677 158.8-68.5zm628.1-182.44h-66c-3.14 0-5.71-1.964-5.71-4.364s2.564-4.364 5.71-4.364h11.419c-3.14 0-5.71-1.964-5.71-4.364s2.564-4.359 5.71-4.359h-8.148c-3.14 0-5.71-1.964-5.71-4.364s2.564-4.364 5.71-4.364h34.446a113.04 113.04 0 00-26.869-5.662C484.896-4.512 451.357 1.591 439.51 7.871a154.444 154.444 0 01-48.268 16.189c-57.952 9.145-166.332 20.149-264.566-3.526C77.854 8.773 41.57 28.678 19.816 61.881h625.623c-.816-9.658-3.26-18.578-7.748-26.381a6.755 6.755 0 01-3.715 1.06zM1.405 139.271a170.833 170.833 0 002.565 58.631l579.743 16.211a212.959 212.959 0 0040.278-46.947zm229.28 41.826H219.26c3.136 0 5.712 1.964 5.712 4.364s-2.571 4.359-5.712 4.359h-66c-3.136 0-5.712-1.959-5.712-4.359s2.571-4.364 5.712-4.364h11.425c-3.136 0-5.712-1.964-5.712-4.364s2.571-4.364 5.712-4.364h-8.163c-3.136 0-5.712-1.959-5.712-4.359s2.571-4.364 5.712-4.364h66.03c3.142 0 5.712 1.964 5.712 4.364s-2.565 4.359-5.712 4.359h8.135c3.142 0 5.712 1.964 5.712 4.364s-2.559 4.364-5.714 4.364zM645.417 69.231l-629.1 11.77a156.322 156.322 0 00-15.069 49.975h633.143a166.828 166.828 0 009.141-31.852 116.745 116.745 0 001.885-29.893zM128.98 107.799h-11.355c3.117 0 5.678 1.964 5.678 4.364s-2.555 4.364-5.678 4.364H52.001c-3.117 0-5.678-1.964-5.678-4.364s2.555-4.364 5.678-4.364h11.356c-3.117 0-5.678-1.959-5.678-4.359s2.555-4.364 5.678-4.364h-8.114c-3.117 0-5.678-1.964-5.678-4.364s2.555-4.364 5.678-4.364h65.625c3.123 0 5.678 1.964 5.678 4.364s-2.549 4.364-5.678 4.364h8.108c3.117 0 5.678 1.964 5.678 4.364s-2.556 4.359-5.674 4.359z"/><ellipse class="a" cx="36.039" cy="8.091" rx="36.039" ry="8.091" transform="translate(342.303 390.857)"/><ellipse class="a" cx="65.017" cy="5.337" rx="65.017" ry="5.337" transform="translate(437.679 419.308)"/><ellipse class="a" cx="65.017" cy="8.091" rx="65.017" ry="8.091" transform="translate(75.923 408.462)"/><ellipse class="a" cx="48.921" cy="8.091" rx="48.921" ry="8.091" transform="translate(234.2 361.199)"/><ellipse class="a" cx="39.162" cy="8.091" rx="39.162" ry="8.091" transform="translate(260.869 435.351)"/><path d="M505.959 226.1c-1.035-6.965-7.363-23.22-7.363-23.22q-.165-.719-.374-1.437c-4.489-15.425-10.7-16.767-10.7-16.767l-22.257-4.79a1.724 1.724 0 01.479.446 3.09 3.09 0 00-.35.053 8.719 8.719 0 01-1.95-4.216 11.92 11.92 0 01-.11-.714 15.655 15.655 0 00-1.274-23.536 23.306 23.306 0 00-.714-.527 3.548 3.548 0 00.3-4.22c-1.753-3.641-5.567-5.945-9.485-7.071a16.08 16.08 0 00-9.207-.2 33.261 33.261 0 00-4.819 2.237c-2.956 1.475-6.228 2.644-8.436 5.073a2.476 2.476 0 00-.843 2.036 5.5 5.5 0 00.838 1.48 4.467 4.467 0 01.043 3.708 35.928 35.928 0 00-1.38 3.565 3.726 3.726 0 00.743 3.579 15.762 15.762 0 001.389.958 7.286 7.286 0 011.327 1.49q1.322 1.772 2.635 3.559a36.664 36.664 0 013.3 5.016 24.445 24.445 0 002.041 3.832 5.681 5.681 0 00.877.92l-.259-.1a3.991 3.991 0 002.927 1.193h.134a.8.8 0 00.537-.22v.479c.053 1.71.043 3.531-.077 5.241l-.206-.105a1.8 1.8 0 00-1.916.2l-20.489 16.44s-4.455 6.094-3.832 16.614l-3.593 15.775s-4.489 13.385-1.035 22.942 5.456 15.023 5.456 15.023 1.38 10.86 3.454 11.746 2.97 1.365 2.97 1.365l.412 2.6s.139.254.383.68c1.509 2.625 7.1 11.89 10.348 10.9a41.532 41.532 0 01.527 7.612l3.214 21.581s2.242 5.868 2.1 8.944 2.616 7.459 2.616 7.459a14.252 14.252 0 00-1.38 10.036c1.313 5.749 2.97 32.231 2.97 32.231l2.4 6.419-.067 7.526a7.185 7.185 0 01-1.485 3.353c-1.552 1.686-1.437 3.636-5.179 5.94s-6.113 3.176-6.113 6.228a8.006 8.006 0 01-.115 1.27c-.345 2.242-1.016 3.459 5.864 4.11a18.137 18.137 0 0013.471-4.5s1.188-2.156 6.783-3.028c0 0 1.916-.1 2.017-1.792.038-.584.029-1.7 0-2.932-.091-2.343-.316-5.078-.613-5.212-.374-.168-1.025-2.525-1.25-3.377h1.557s1.437-10.86 0-17.893a29.027 29.027 0 01-.139-12.019l-.278-18.573s-1.916-2.05-.412-5.672 0-21.509 0-21.509.556-6.419 2.141-7.924.077-9.4 0-9.816l2.826 9.48s1.241 18.846 3.871 22.257l.757 8.537s5.385 7.856 4.35 12.086 1.107 19.531 1.107 19.531v15.641s-2.419 6.28.958 8.537l1.437-.057c-.479.445-.848 1.116-1.408 1.7-.647.666-1.016 3.2-1.222 5.38a68.348 68.348 0 00-.23 3.43 5.648 5.648 0 004.144 2.458c2.707.158 11.627 6.941 11.627 6.941s8.81 0 11.09-.479l.134-.034a2.994 2.994 0 001.72-1.4 3.593 3.593 0 00.412-2.582c-.283-1.346-1.351-2.822-3.717-4.077-5.888-3.1-6.764-6.012-6.764-6.012l-3.866-5.8h.551a24.816 24.816 0 013.866-13.045l-.273-30.386s1.725-10.448-1.241-16.12c0 0-.244-6.007 1.739-7.852s-2.64-20.484-2.64-20.484-.958-10.007-2.084-19.138c4.661 4.422 9.495-11.5 10.309-14.328h.12l-.053-.206c.034-.134.053-.2.053-.2s-1.035-3.679-.278-2.932 2.625-2.05 2.625-2.05-.278-15.229 2.97-22.9-1.443-26.385-1.443-26.385zm-13.893 9.691l.024-.043c.479 9.3-.091 29.141-.091 29.141s-.642 2.544-1.327 5.538l-.479-18.851-.479-17.758zm-59.455-6.41s2.347 29.361 0 33.6a22.183 22.183 0 00-1.691 5.8c-.776-2.036-2.419-6.817-1.83-9.351.762-3.277-1.519-11.885-1.519-12.086a20.423 20.423 0 011.437-8.3c1.643-3.507.565-5.025.565-5.025s1.38-5.752 3.038-4.64z" transform="translate(-188.369 -82.222)" fill="url(#a)"/><path class="c" d="M246.199 233.287c-2.046 8.992-10.18-4.6-12.034-7.866-.24-.426-.374-.675-.374-.675l.881-4.134 4.661-1.916a13.021 13.021 0 012.089 1.361 12.593 12.593 0 014.777 13.23zm74.913-14.951a.628.628 0 01-.053.2 1.021 1.021 0 01-.062.216c-.8 2.807-5.543 18.611-10.122 14.223-5.011-4.791-2.577-15.866-2.577-15.866h.034l10.539-1.078 2.089 2.146z"/><path class="d" d="M308.33 303.435l.268 30.18a24.753 24.753 0 00-3.794 12.934l-13.624.537c-3.325-2.237-.958-8.47-.958-8.47v-15.54s-2.1-15.181-1.087-19.387-4.268-11.976-4.268-11.976l-.747-8.474c-2.577-3.387-3.8-22.094-3.8-22.094l-2.764-9.447c.077.407 1.514 8.292 0 9.744s-2.1 7.861-2.1 7.861 1.49 17.763 0 21.351.4 5.629.4 5.629l.273 18.439a28.835 28.835 0 00.134 11.928c1.423 6.98 0 17.763 0 17.763h-14.617l.067-7.526-2.367-6.371s-1.629-26.3-2.917-32a14.3 14.3 0 011.351-9.964s-2.707-4.335-2.572-7.387-2.089-8.872-2.089-8.872l-3.152-21.418a41.611 41.611 0 00-1.562-12.2c-1.83-6.1-4.541-14.1-4.541-14.1l3.061.273 15.445 1.375s37.553-2.525 39.234-.426a7.048 7.048 0 01.709 2.189c1.686 7.574 3.914 31.3 3.914 31.3s4.541 18.506 2.592 20.336-1.71 7.789-1.71 7.789c2.922 5.629 1.221 16.024 1.221 16.024z"/><path class="e" d="M274.463 360.917c-.105 1.681-1.978 1.782-1.978 1.782-5.49.862-6.659 3-6.659 3a17.633 17.633 0 01-13.217 4.474c-6.755-.651-6.1-1.854-5.749-4.082a8.432 8.432 0 00.11-1.255c0-3.052 2.338-3.919 6-6.228s3.559-4.22 5.083-5.9 1.681-4.929 1.681-4.929c1.725-3 6.1.479 6.1.479.206 1.063 6.707.915 6.707.915s.862 3.459 1.308 3.66c.292.134.513 2.846.6 5.174.043 1.223.052 2.33.014 2.91z"/><path class="f" d="M274.463 361.133c-.105 1.682-1.978 1.782-1.978 1.782-5.49.862-6.659 3-6.659 3a17.633 17.633 0 01-13.217 4.474c-6.755-.651-6.1-1.854-5.749-4.082 3.018.747 8.786 1.792 12.154-.038 4.68-2.539 8.038-4.311 8.038-4.311l7.4-3.722c.04 1.211.049 2.319.011 2.897z"/><path class="e" d="M323.903 370.138a2.922 2.922 0 01-1.686 1.394l-.129.034c-2.237.479-10.884.479-10.884.479s-8.743-6.759-11.387-6.913a5.561 5.561 0 01-4.067-2.443s.053-1.571.22-3.4c.206-2.165.565-4.68 1.2-5.341 1.169-1.222 1.437-2.874 4.067-1.83 0 0 3.756-6.621 8.182-1.5l4.58 6.946s.862 2.874 6.664 5.993c2.319 1.246 3.353 2.711 3.646 4.048a3.569 3.569 0 01-.406 2.533z"/><path class="f" d="M323.903 370.334c-.517.436-1.087.905-1.686 1.394l-.129.034c-2.237.479-10.884.479-10.884.479s-8.743-6.759-11.387-6.913a5.561 5.561 0 01-4.067-2.443s.053-1.571.22-3.4c2.692.8 6.769 2.228 7.861 3.761 1.677 2.333 6.769 5.591 6.769 5.591s9.495-.915 13.71-1.04a3.569 3.569 0 01-.407 2.537z"/><path class="c" d="M280.034 110.121l-12.5 13.217s-15.152-1.116-12.508-5.591c1.346-2.28 1.557-7.052 1.437-11.2-.11-4-.522-7.406-.522-7.406s21.251-10.577 19.641-.714a16.233 16.233 0 00-.057 5.629c.902 4.982 4.509 6.065 4.509 6.065z"/><path class="f" d="M275.353 98.101a16.235 16.235 0 00-.057 5.629 15.6 15.6 0 01-11.124 4.642c-2.874 0-5.983-2.362-8.307-3.727-.11-4-.134-5.83-.134-5.83s21.251-10.578 19.622-.714z"/><path class="c" d="M279.34 90.433a15.66 15.66 0 11-5.892-12.235 15.66 15.66 0 015.892 12.235z"/><path class="f" d="M301.992 220.564c-3.9 9.279-28.983 9.471-28.983 9.471v-10.117l-1.519-.1c.656 2.9-.92 9.964-.92 9.964-19.823 2.8-24.657-8.5-24.657-8.5l.69-3.866 15.445 1.375s37.553-2.525 39.234-.426a7.047 7.047 0 01.71 2.199z"/><path class="g" d="M273.052 222.21v-10.118l-1.519-.1c.656 2.874-.92 9.964-.92 9.964-14.918 2.1-21.347-3.77-23.612-6.807a9.272 9.272 0 01-1.044-1.686l6.055-34.061 1.437-50.128 2.17-8.8.5-4.22v-.048h.053l1.543.661 9.231 3.991 10.486-7.919.153-.11.522-.4.867.695 2.16 1.736 6.913 44.643s11.976 34.372 14.218 48.245c.091.556.163 1.073.22 1.557 1.48 12.67-29.433 12.905-29.433 12.905z"/><circle class="h" cx=".891" cy=".891" r=".891" transform="translate(266.872 118.341)"/><circle class="h" cx=".891" cy=".891" r=".891" transform="translate(267.36 127.263)"/><circle class="h" cx=".891" cy=".891" r=".891" transform="translate(268.416 141.706)"/><circle class="h" cx=".891" cy=".891" r=".891" transform="translate(270.16 157.264)"/><circle class="h" cx=".891" cy=".891" r=".891" transform="translate(271.216 171.87)"/><circle class="h" cx=".891" cy=".891" r=".891" transform="translate(272.272 187.428)"/><circle class="h" cx=".891" cy=".891" r=".891" transform="translate(271.852 202.817)"/><path class="f" d="M253.21 184.387s-1 13.045-2.826 16.839-2.644 14.439-2.644 14.439l-4.249-.479a9.271 9.271 0 01-1.044-1.686l6.055-34.061 1.437-50.128 2.175-8.8.5-4.22.057-.024a1.715 1.715 0 011.514.024l.2.105q-.091.259-.172.532c-1.658 5.188-2.276 14.75-2.276 14.75s2.4 17.49 2.644 25.624-1.371 27.085-1.371 27.085zm-12.144 35.146a2.451 2.451 0 01-.163.316c-1.648 2.783-5.825 4.551-7.095 5.035-.24-.426-.374-.675-.374-.675l.881-4.134 4.661-1.916a13.02 13.02 0 012.09 1.374z"/><path class="h" d="M228.179 149.055l-3.866 2.3-3.521 15.66s-4.407 13.284-1.02 22.774 5.356 14.922 5.356 14.922 1.356 10.779 3.392 11.66 2.913 1.356 2.913 1.356l.407 2.577s5.519-1.873 7.468-5.174-1.437-11.5-1.437-11.5-2.913-6.985-2.165-10.237-1.495-11.794-1.495-11.976a20.3 20.3 0 011.437-8.24c1.638-3.492.546-4.982.546-4.982l-1.02-9.964z"/><path class="f" d="M305.865 210.66s-10.237 3.861-13.49.479-2.917-19.253-2.917-19.253-3.114-29.284-5.083-34.094-.958-39.522-.958-39.522-1.322-4.489-2.477-5.662a1.256 1.256 0 00-.244-.2l.4.086 1.389.3 2.156 1.729 6.913 44.643s11.976 34.372 14.218 48.245zm15.305 7.384h-.115c-1.289.168-12.661 1.543-12.709-.824a6.943 6.943 0 01.043-.819l10.539-1.078 2.089 2.146c.038.139.067.259.1.354z"/><path class="h" d="M310.849 131.961l7.473 3.9s6.228 16.125 7.224 23.038c0 0 4.613 18.52 1.437 26.137s-2.913 22.736-2.913 22.736-1.83 2.779-2.577 2.036.273 2.913.273 2.913-12.776 1.7-12.829-.814 2.932-14.506 2.932-14.506.814-28.537-.34-33.011-.68-32.429-.68-32.429z"/><path class="f" d="M282.433 163.009s-4.206 10.3-5.562 10.98.273 3.387.273 3.387 7.66-10.707 5.289-14.367zm-3.066-39.969c.048-.2-5.016 4.968-6.371 5.749s4.948-.048 6.371-5.749zm-16.762 38.815s-7.727 5-6.707 6.975 6.707-6.975 6.707-6.975zm18.767 79.984a41.363 41.363 0 0016.81 5.27zm-19.394 11.307s6.1 7.665 8.882 7.861-8.882-7.861-8.882-7.861zm8.612 32.941c-.273.134-3.459 6.913-6.707 7.119s6.707-7.119 6.707-7.119zm34.94 16.027s6.046-1.356 7.392 2.98c0-.015-.407-1.371-7.392-2.98zm-4.683 27.077s7.325-1.495 8.882.541-8.882-.541-8.882-.541zm-26.024 3.941c0 .067-7.454 1.495-7.186 2.443s7.952.814 8.225-.68a1.437 1.437 0 00-1.039-1.763zm23.347 6.966s12.249-1.495 11.5 1.083-11.5-1.083-11.5-1.083zm-76.388-165.422c.067.2 8.067 1.289 9.15 3.866 0 0-7.861-3.665-9.1-3.665m11.957 22.886s-6.644 2.1-6.17 5.27-.674-1.466 6.17-5.27zm-2.584 17.277s2.419-3.32 4.723-2.711-4.723 2.711-4.723 2.711zm41.786-136.873a3.767 3.767 0 01-.776.58c-1.916 1.116-2.443 2.836-3.353 4.819-.848 1.816-1.782 3.737-3.492 4.767-2.208 1.332-5.116.843-7.411 2A5.749 5.749 0 00254.893 96a16.351 16.351 0 00.652 2.6 18.515 18.515 0 01.7 5.638.967.967 0 010 .168 15.655 15.655 0 1116.767-26.238z"/><path class="i" d="M271.669 66.423c-1.72-3.612-5.461-5.9-9.308-7.018a15.633 15.633 0 00-9.04-.192 33.16 33.16 0 00-4.728 2.218c-2.9 1.466-6.094 2.625-8.278 5.035a2.523 2.523 0 00-.829 2.022 5.647 5.647 0 00.819 1.466 4.448 4.448 0 01.043 3.684 33.8 33.8 0 00-1.351 3.54 3.725 3.725 0 00.728 3.55 13.273 13.273 0 001.37.958 7.21 7.21 0 011.3 1.475l2.587 3.535a35.855 35.855 0 013.238 4.977 23.721 23.721 0 002 3.8 4.335 4.335 0 003.631 1.94.7.7 0 00.575-.273.757.757 0 00.072-.359 18.386 18.386 0 00-.685-5.619 16.217 16.217 0 01-.651-2.6 5.773 5.773 0 013.066-5.667c2.3-1.159 5.207-.671 7.411-2 1.715-1.035 2.649-2.956 3.492-4.791.925-1.983 1.437-3.7 3.353-4.819s2.139-2.96 1.185-4.862z"/><path class="f" d="M267.163 353.817s2.4 3.052 1.773 4.791-1.773-4.791-1.773-4.791zm39.078 7.903s.532-4.091 2.663-4.129 2.237-.22 3.866.407 3.157 1.6 2.668 1.744-2.8-2.338-5.179-1.068a17.108 17.108 0 00-4.018 3.046zM258.35 123.116l6.707-4.7s-9.811-5.8-10.98-4.982-1.974 8.144-1.974 8.144z"/><path class="j" d="M258.316 122.778l6.707-4.791s-9.811-5.8-10.98-4.982-1.974 8.546-1.974 8.546z"/><path class="g" d="M258.316 122.778l6.707-4.791s-9.811-5.8-10.98-4.982-1.974 8.546-1.974 8.546z"/><path class="h" d="M251.729 115.937l-.2-.1a1.739 1.739 0 00-1.883.2l-20.12 16.321s-4.374 6.05-3.765 16.489l11.866 16.81s1.356-5.691 2.98-4.608c0 0 2.3 29.15 0 33.352s-3.324 19.922-3.324 19.922l7.794.881s.814-10.645 2.644-14.439 2.826-16.839 2.826-16.839 1.648-18.951 1.375-27.086-2.639-25.617-2.639-25.617.664-10.256 2.446-15.286z"/><path class="f" d="M277.915 119.818l-8.359-3.095s10.645-11.66 11.976-5.193z"/><path class="j" d="M277.915 119.37l-8.36-3.093s10.645-11.66 11.976-5.193z"/><path class="g" d="M277.915 119.37l-8.36-3.093s10.645-11.66 11.976-5.193z"/><path class="f" d="M278.222 109.237a.479.479 0 01.345.077z"/><path class="h" d="M282.024 111.41l22.18 4.791s6.1 1.356 10.51 16.676-6.036 34.089-6.036 34.089l-2.3-1.959 1.154 44.739s-10.237 3.861-13.49.479-2.913-19.267-2.913-19.267-3.119-29.28-5.088-34.094-.958-39.517-.958-39.517-1.813-6.205-3.059-5.937z"/><path class="f" d="M303.557 141.009c-.311.287-.675 13.825.68 24.13a131.492 131.492 0 003.833 18.573l-2.012-41.28s-1.553-2.305-2.501-1.423zm-3.397-13.951c.541.34 2.917 5.964 1.83 8.268s-1.83-8.268-1.83-8.268zm-27.224-60.635a12.244 12.244 0 00-4.877-5.107 11.6 11.6 0 013.655 4.311c.958 1.916.675 3.832-1.188 4.882s-2.443 2.836-3.353 4.819c-.848 1.816-1.782 3.737-3.5 4.79-2.2 1.332-5.112.838-7.411 2a5.787 5.787 0 00-3.066 5.672 16.289 16.289 0 00.656 2.592 18.53 18.53 0 01.7 5.638.756.756 0 01-.077.359.685.685 0 01-.57.273 3.3 3.3 0 01-1.672-.311 3.89 3.89 0 002.874 1.126.565.565 0 00.642-.632 18.383 18.383 0 00-.695-5.638 15.74 15.74 0 01-.656-2.6 5.772 5.772 0 013.066-5.667c2.3-1.159 5.207-.671 7.411-2 1.715-1.035 2.649-2.956 3.492-4.79.925-1.983 1.437-3.7 3.353-4.819s2.174-2.996 1.216-4.898z"/><path d="M699.321 225.372c-6.6-.129-12.427-4.791-15.727-10.486A10.539 10.539 0 01682 210.4a5.183 5.183 0 01.182-1.073 11.13 11.13 0 00.479-1.643 2.866 2.866 0 000-.671v-.038a3.963 3.963 0 00-1.437-3.224c-.881-.829-1.988-1.437-2.908-2.261-2.836-2.491-3.7-6.486-3.751-10.29v-.2c.034-1.629.163-3.262.148-4.891a20.578 20.578 0 00-.12-2.769 9.149 9.149 0 00-2.961-6.122c-4.723-3.832-12.666.158-17.557-3.464-1.188-.886-2.151-2.194-3.593-2.539a6.052 6.052 0 00-3.281.446c-3.6 1.188-7.622 2.75-9.03 6.228-.8 2-.58 4.278-1.317 6.3a31.449 31.449 0 01-2.06 3.8 5.955 5.955 0 00-.766 3.176 3.584 3.584 0 00.235 1.691 4.31 4.31 0 001.174 1.681 5.582 5.582 0 01-.7 1.121c-.92 1.126-2.333 1.916-3.291 3.037-1.773 2.055-1.705 4.848-.834 7.262s2.448 4.613 3.535 6.965a3.739 3.739 0 01.359 3.176 9.107 9.107 0 01-1.591 1.849 5.812 5.812 0 00-1.437 3.21c-10.783 2.462-10.793 11.128-10.793 11.128l-5.825 14.649s-.934 2.467-2.031 5.725l-6.894-1.236 4.791 8.019c-.905 3.267-1.547 6.295-1.337 7.818 0 0-2.141 10.06 1.667 11.818l8.4 3.78a4.977 4.977 0 001.164.522l.34.153a.9.9 0 00.786 0h.115a1.131 1.131 0 00.479-.072.958.958 0 00.422-.455.143.143 0 010-.048l2.515-.728 2.132 2.525c.958.675 1.916 1.26 2.822 1.787l-3.3 32.777s-.532 43.594-2.141 53.529a27.827 27.827 0 00-.374 7.895l-.062.105c.4 2.8 1.437 3.353 1.437 3.353v-.038a.314.314 0 00.062.038 28.232 28.232 0 011.725-3.7v.719c-.034 3.7-.148 8.877-.532 12.245-.651 5.749 1.667 24.7 1.667 24.7l.8 17.246a15.943 15.943 0 01-1.964 8.4c-1.916 3.444-4.364 8.292-4.541 10.443a2.145 2.145 0 000 .35l-4.11 4.944s-1.6 2.482 2.022 3.483c1.95.541 5.313 0 8.015-.637a5.356 5.356 0 004.153-5.212 18.442 18.442 0 013.392-6.51l.675 3.971 4.522 1.121.58-10.884a4.791 4.791 0 00.311-1.916c.891-7.741-2.1-7.047-2.1-7.047a.417.417 0 01.144.268l-.144-.263c-1.835-3.622-.958-9.581-.958-9.581s2.4-17.246 3.214-21.8c.589-3.219.345-13.758.148-19.641a7.02 7.02 0 00-.024-.714c7.013-.091 15.608-.326 21.639-.91v.709l-1.111 40.743a22.367 22.367 0 01-1.562 7.579.413.413 0 01-.053.139 33.054 33.054 0 00-2.208 10.678l-.517 12.934v.359c-.9.345-2.323 1.346-2.362 4.249-.062 4.254 7.435 2.836 7.435 2.836 7.492 0 7.555-7.8 7.555-7.8s.235-7.152.594-11.938-1.131-3.732-1.131-3.732l-.115 13.615v-11.83l.115-1.729v-.417l.944-14.041s6.9-23.4 7.971-27.886c.762-3.19.446-12.8.2-18.113a4.223 4.223 0 00-.038-.7 55.81 55.81 0 014.791-.211h.35s-.354-37.577-1.25-51.738-2.319-27.119-5.888-31.019c-2.156-2.357-5.159-9.634-7.186-15.023a75.152 75.152 0 0013.207 4.311c11.3 2.367 9.754-7.444 9.754-7.444l-1.145-18.554h.077a94.579 94.579 0 00-1.245-14.506 42.676 42.676 0 00-2.913-10.539 87.395 87.395 0 003.626-1.519c3.071-1.356 6.529-3.277 6.97-6.587h-.149a4.269 4.269 0 00.115-.728zM629.27 252.2c.024 1.916-.048 5.241-.163 8.915l-3.588-4.791 3.6-5.835zm48.077 9.728zm1.495 7.248l-5.979-1.916a26.824 26.824 0 013.693-4.57l.517-.479-.187.038.287-.263.172-.038-.273.263.326-.067a10.2 10.2 0 002.036 4.1c2.146 2.343-.589 2.937-.589 2.937z" transform="translate(-269.193 -59.104)" fill="url(#b)"/><path class="l" d="M369.08 382.526l-.7 13.26-4.46-1.116-.939-5.514z"/><path class="f" d="M369.08 382.526l-.7 13.26-4.46-1.116-.939-5.514z"/><path class="m" d="M391.421 397.545l6.8 1.408 5.044-4.455v-12.556l.115-1.715v-.417l.939-13.955s6.807-23.229 7.866-27.689c.747-3.162.436-12.7.187-17.979-.1-2.161-.187-3.607-.187-3.607l-15.018-3.636-.316 11.545-1.1 40.451a22.417 22.417 0 01-1.538 7.526l-.053.139a32.92 32.92 0 00-2.18 10.6l-.508 12.862v.354z"/><path class="f" d="M403.134 379.82v.354-.364zm-12.825 17.725l6.8 1.408 5.044-4.455v-1.068a1.437 1.437 0 01-.723 1.15l-.072.043a13.556 13.556 0 01-7.636 1.509l-2.654-.225a2.489 2.489 0 00-.7.172v.354z"/><path class="e" d="M401.344 394.972l.072-.038a1.437 1.437 0 00.733-1.245l.11-13.514s1.466-1.049 1.111 3.7-.584 11.852-.584 11.852-.057 7.741-7.449 7.741c0 0-7.392 1.408-7.334-2.817s3.052-4.4 3.052-4.4l2.654.23a13.524 13.524 0 007.635-1.509z"/><path class="m" d="M349.022 394.671c.172 3.052 9.15 1.289 9.15 1.289l6.041-11.727s5.045-3.876 2.52-7.277a5.422 5.422 0 01-.369-.58l-.024-.029a3.884 3.884 0 01-.149-.273c-1.811-3.593-.92-9.485-.92-9.485s2.343-17.131 3.167-21.648c.58-3.19.34-13.658.148-19.512a381.174 381.174 0 00-.148-4.067l-14.9-3.991v4.446c-.034 3.674-.148 8.815-.527 12.158-.642 5.686 1.643 24.518 1.643 24.518l.79 17.136a15.872 15.872 0 01-1.916 8.34c-1.868 3.42-4.312 8.24-4.479 10.372a2.08 2.08 0 00-.027.33z"/><path class="f" d="M348.877 394.67c.172 3.052 9.15 1.289 9.15 1.289l6.041-11.727s5.044-3.876 2.52-7.277a5.436 5.436 0 01-.369-.58c-.081 1.777-2.031 6.228-2.031 6.228s-4.987 9.979-6.573 12.264-8.474-.426-8.733-.522a2.089 2.089 0 00-.005.325z"/><path class="e" d="M365.77 376.059s2.951-.685 2.069 7a4.948 4.948 0 01-2.333 4.393 16.776 16.776 0 00-7.018 9.734 5.308 5.308 0 01-4.1 5.174c-2.664.623-5.983 1.169-7.9.632-3.578-1-1.993-3.459-1.993-3.459l4.105-4.872s7.157 2.817 8.738.527 6.573-12.259 6.573-12.259 2.736-6.223 1.859-6.87z"/><path class="f" d="M397.521 301.913l-.316 11.545c4-.388 6.865-.929 7.353-1.691 1.059-1.638 4.9-2.328 8.168-2.611-.1-2.161-.187-3.607-.187-3.607zm-43.63 9.054a5.479 5.479 0 011.643-1.983c1.581-.877 1.408 5.634 1.408 5.634s5.27.048 12-.038a366.86 366.86 0 00-.149-4.072l-14.9-3.986s.027 1.848-.002 4.445z"/><path class="d" d="M356.772 308.163s1.763-4.79 3.353-5.643 1.408 5.629 1.408 5.629 38.717.354 40.652-2.64 13.2-2.817 13.2-2.817-.35-37.309-1.231-51.383-2.285-26.927-5.806-30.8c-2.276-2.505-5.514-10.611-7.516-16.015a214.633 214.633 0 01-1.811-5.1l-36.954 2.108-.3 2.994-3.923 39.244s-.527 43.292-2.113 53.146 1.041 11.277 1.041 11.277z"/><path d="M399.174 305.509c1.916-2.989 13.2-2.817 13.2-2.817s-.35-37.309-1.231-51.383-2.285-26.927-5.806-30.8c-2.285-2.515-5.514-10.611-7.516-16.015a193.29 193.29 0 01-1.753-4.939l2.874-.163s.723 2.151 1.816 5.1c2 5.4 5.236 13.509 7.512 16.015 3.521 3.871 4.929 16.719 5.806 30.8s1.236 51.383 1.236 51.383-11.262-.172-13.2 2.817c-1.653 2.553-30.142 2.673-38.41 2.649 10.604-.022 33.977-.338 35.472-2.647zm-42.061-2.99c.714-.4 1.068.7 1.246 2.041a27.625 27.625 0 00-1.662 3.6s-1.02-.551-1.437-3.353a6.521 6.521 0 011.853-2.288z"/><path class="i" d="M364.673 94.999c-2.558 3.487.029 8.446-2.716 11.837-.905 1.121-2.3 1.916-3.243 3.018-1.749 2.041-1.681 4.814-.824 7.21s2.4 4.58 3.487 6.917a3.7 3.7 0 01.354 3.152 8.928 8.928 0 01-1.571 1.835 6.617 6.617 0 00-.862 7.023 22.73 22.73 0 004.546 6.276 3.1 3.1 0 004.508 1.03 17.725 17.725 0 008.067-23.133c-1.485-3.559-3.962-6.97-3.986-10.731 0-2.984 1.533-5.835 1.806-8.8.331-3.612-1.806-9.346-6.165-10.922.283 2.313-2.103 3.496-3.401 5.288z"/><path class="f" d="M364.673 94.999c-2.558 3.487.029 8.446-2.716 11.837-.905 1.121-2.3 1.916-3.243 3.018-1.749 2.041-1.681 4.814-.824 7.21s2.4 4.58 3.487 6.917a3.7 3.7 0 01.354 3.152 8.928 8.928 0 01-1.571 1.835 6.617 6.617 0 00-.862 7.023 22.73 22.73 0 004.546 6.276 3.1 3.1 0 004.508 1.03 17.725 17.725 0 008.067-23.133c-1.485-3.559-3.962-6.97-3.986-10.731 0-2.984 1.533-5.835 1.806-8.8.331-3.612-1.806-9.346-6.165-10.922.283 2.313-2.103 3.496-3.401 5.288zm30.682 139.031c-5.121.268-9.94 2.472-14.424 4.963s-8.824 5.313-13.648 7.08m24.593 1.364a21.111 21.111 0 00-13.294 6.467c-1.245 1.317-2.319 2.793-3.617 4.058a16.068 16.068 0 01-7.128 4.038m24.898-4.24a23.244 23.244 0 00-10.693 6.448c-.786.848-1.5 1.753-2.285 2.6-4.24 4.551-10.228 6.965-16.01 9.25"/><path class="m" d="M393.299 117.777a105.112 105.112 0 001.054 12.225c.479 2.874 1.15 5.461 2.113 6.606 2.817 3.353-13.725 7.833-13.725 7.833l-9.768-7.569s7.741-7.128 4.134-14.079 16.192-5.016 16.192-5.016z"/><path class="f" d="M360.508 198.611h39.067a214.633 214.633 0 01-1.811-5.1l-36.954 2.108z"/><path class="g" d="M359.882 194.324h41.768a14.493 14.493 0 011.672-11.076 24.479 24.479 0 014.374-5.672l.287-.263 14.582-3.229.786-.172s.12-26.516-9.27-30.156a54.9 54.9 0 01-15.018-8.561l-12.9 3.986-9.5-4.79c-3.052 3.281-11.148 1.993-11.148 1.993-13.255 1.523-13.255 11.5-13.255 11.5s7.742 18.065 8.331 18.065-.709 28.375-.709 28.375z"/><path class="f" d="M369.404 179.331s-8.518-1.887-11.416-5.188m63.224-4.983l-9.878 8.1a16.825 16.825 0 00.326 1.916l.287-.263 14.582-3.229zm-30.231 25.339s2.161 1.217 5.471 2.817h5.677a14.493 14.493 0 011.672-11.076l-10.007-3.238c3.405 3.167-2.813 11.497-2.813 11.497z"/><path class="g" d="M350.215 145.622l-5.864 3.167-5.749 14.549s-5.983 15.952-5.4 20.178c0 0-2.108 9.974 1.643 11.732l9.773 4.426a.91.91 0 001.174-1.255c-1.394-2.64-2.927-6.769-.479-9.04l-2.817-5.864 10.18-16.661 3.4-5.749z"/><path class="f" d="M369.302 176.359c.508 2.07 2.223 5.27 7.9 6.462l6.228 5.1 6.625 3 2.7 1.222 1.145-8.273-2.6-1.437-3.032-1.658s-6.841-12.393-17.672-7.186a2.4 2.4 0 00-1.294 2.77z"/><path class="m" d="M369.725 175.585c.508 2.074 2.218 5.27 7.895 6.462l6.228 5.1 6.63 3 2.7 1.222 1.145-8.273-2.6-1.437-3.008-1.643s-6.846-12.393-17.677-7.162a2.4 2.4 0 00-1.308 2.726z"/><circle class="f" cx="15.133" cy="15.133" r="15.133" transform="translate(366.891 96.331)"/><circle class="m" cx="15.133" cy="15.133" r="15.133" transform="translate(366.891 95.945)"/><path class="f" d="M393.162 146.282l-4.551-8.843s6.659-2.692 7.143-5.811 6.381 3.655 5.107 5.9-7.699 8.754-7.699 8.754z"/><path class="g" d="M393.162 145.506l-4.551-8.843s6.659-2.692 7.143-5.811 6.381 3.66 5.107 5.9-7.699 8.754-7.699 8.754z"/><path d="M349.516 172.805l25.145 33.807s-9.27 5.044-22.036-3.986l-5.514-6.573-15.745-26.534z" fill="#f6f8fb"/><path class="m" d="M344.621 191.673l2.29-.062s13.988-13.576 17.423-6.707-8.714 13.289-8.714 13.289l-3.693 1.993-4.814 1.437-3.08-4.134z"/><path class="f" d="M346.01 199.437a3.417 3.417 0 01.057 2.367.957.957 0 01-.417.455 1.068 1.068 0 01-.479.067 4.814 4.814 0 01-3.157-1.562 14.415 14.415 0 01-2.046-2.961 5.461 5.461 0 01-1.05-3.527c.249-1.346 1.437-2.28 2.6-3.037 2.319-1.533 2.4.254 2.9 2.228s1.06 3.976 1.592 5.97z"/><path class="g" d="M345.594 199.437a3.446 3.446 0 01.057 2.367.958.958 0 01-.417.455 1.077 1.077 0 01-.479.067 4.79 4.79 0 01-3.157-1.562 14.253 14.253 0 01-2.05-2.961 5.428 5.428 0 01-1.044-3.526c.244-1.346 1.437-2.28 2.6-3.037 2.323-1.533 2.4.254 2.908 2.228s1.046 3.975 1.582 5.969z"/><path class="f" d="M354.192 166.928l1.169-1.978-1.019 3.674zm37.876 23.825l2.7 1.222 1.145-8.273-2.6-1.437c1.792 2.059.221 5.869-1.245 8.488zm11.52-10.204s-8.709.532-12.407-1.844"/><path d="M403.066 184.032a24.519 24.519 0 014.374-5.677 11.678 11.678 0 011.289-.7l13.576-2.788.786-.172s.12-26.515-9.265-30.156a56.393 56.393 0 01-14.64-8.244l1.03-.316a54.748 54.748 0 0015.018 8.561c9.389 3.636 9.265 30.156 9.265 30.156h-1.408l-13.892 2.659s-.6.58-.781.747a26.921 26.921 0 00-4.441 5.873 14.726 14.726 0 00-1.164 11.133h-1.437a14.644 14.644 0 011.69-11.076zm-37.078-46.805c.225-.034.441-.067.675-.091a24.29 24.29 0 002.874.235 26.128 26.128 0 01-3.55-.144zm19.914 2.737l-8.594-4.35a4.552 4.552 0 00.479-.455l8.968 4.537z"/><path class="g" d="M420.68 169.322l5.749 7.042 1.174 19.124s1.523 9.734-9.619 7.387-24.039-9.6-24.039-9.6 6.228-8.331 2.817-11.5l15.957 5.164s2.7-.589.584-2.932-2.486-6.573-2.486-6.573z"/><path class="f" d="M425.071 190.294l3.167 3.636a4.565 4.565 0 01-3.167-3.636zm-6.188-.51l4.929 6.333-2.462.589zm-51.334-86.234a5.055 5.055 0 01.527-4.125 32.577 32.577 0 002.036-3.78c.723-2 .5-4.268 1.293-6.228 1.394-3.473 5.356-5.025 8.906-6.228a5.988 5.988 0 013.238-.441c1.437.34 2.371 1.643 3.545 2.52 4.819 3.593 12.657-.364 17.318 3.44a9.065 9.065 0 012.917 6.074 53.64 53.64 0 01-.029 6.908c-.077 4.034.68 8.446 3.7 11.119.91.8 1.983 1.408 2.874 2.242a3.925 3.925 0 011.437 3.2 11.113 11.113 0 01-.479 1.629c-.6 2.1.3 4.311 1.389 6.228 3.258 5.638 9 10.285 15.512 10.415-.436 3.286-3.832 5.193-6.874 6.539-3.832 1.72-7.914 3.406-12.134 3.19s-8.623-2.917-9.361-7.076c-.254-1.437-.22-3.167-1.437-3.914-.747-.455-1.715-.34-2.52-.68-1.164-.479-1.739-1.787-2.122-2.989a26.911 26.911 0 01-1.25-7.665c-.053-3.085.354-6.453-1.394-8.992-1.619-2.352-4.494-3.545-6.362-5.705-1.725-2-3.6-4.417-6.424-4.791-3.915-.545-11.997 4.768-14.306-.89z"/><path class="i" d="M367.547 102.765a5.055 5.055 0 01.527-4.125 32.576 32.576 0 002.036-3.78c.723-2 .5-4.268 1.293-6.228 1.394-3.478 5.356-5.03 8.906-6.228a5.988 5.988 0 013.238-.441c1.437.34 2.371 1.643 3.545 2.52 4.819 3.593 12.657-.364 17.318 3.44a9.066 9.066 0 012.917 6.079 53.562 53.562 0 01-.029 6.9c-.077 4.034.68 8.446 3.7 11.119.91.8 1.983 1.408 2.874 2.242a3.925 3.925 0 011.437 3.2 11.112 11.112 0 01-.479 1.629c-.6 2.1.3 4.311 1.389 6.228 3.267 5.619 8.987 10.28 15.5 10.41-.436 3.286-3.833 5.193-6.874 6.544-3.832 1.715-7.914 3.4-12.134 3.186s-8.623-2.917-9.361-7.076c-.254-1.437-.22-3.167-1.437-3.914-.747-.455-1.715-.34-2.52-.68-1.164-.479-1.739-1.787-2.122-2.989a26.875 26.875 0 01-1.25-7.665c-.053-3.085.354-6.453-1.394-8.992-1.619-2.352-4.494-3.545-6.362-5.705-1.725-2-3.6-4.417-6.424-4.791-3.903-.536-11.985 4.784-14.294-.883z"/><path class="f" d="M373.504 145.182l8.676-7.042s-5.94-3.219-6.649-5.964-5.461 1.3-4.977 3.765 2.95 9.241 2.95 9.241z"/><path class="g" d="M373.911 144.016l8.676-7.037s-5.94-3.219-6.62-5.964-5.461 1.3-4.977 3.765 2.921 9.236 2.921 9.236z"/><circle class="f" cx=".69" cy=".69" r=".69" transform="translate(383.216 142.992)"/><circle class="f" cx=".69" cy=".69" r=".69" transform="translate(383.216 147.195)"/><circle class="f" cx=".69" cy=".69" r=".69" transform="translate(383.216 151.392)"/><path d="M371.047 93.441c.685-1.883.537-4 1.178-5.892a6.437 6.437 0 00-.733 1.351c-.8 1.978-.57 4.244-1.3 6.228l-.048.115a10.949 10.949 0 00.903-1.802zm54.731 47.422c-3.832 1.715-7.914 3.4-12.134 3.186s-8.623-2.917-9.361-7.071c-.254-1.437-.22-3.171-1.437-3.919-.747-.455-1.715-.34-2.52-.68-1.164-.479-1.739-1.787-2.122-2.989a26.873 26.873 0 01-1.25-7.665c-.053-3.08.359-6.448-1.389-8.992-1.624-2.352-4.5-3.54-6.367-5.706-1.725-2-3.6-4.417-6.424-4.791-3.876-.527-11.976 4.791-14.266-.872a4.455 4.455 0 01.148-3.272c-.168.283-.331.565-.479.853a5.075 5.075 0 00-.522 4.129c2.3 5.653 10.391.34 14.266.872 2.826.383 4.7 2.8 6.424 4.791 1.868 2.165 4.743 3.353 6.362 5.71 1.753 2.539 1.341 5.907 1.394 8.987a26.877 26.877 0 001.25 7.665 4.45 4.45 0 002.122 2.989c.8.34 1.773.23 2.52.68 1.236.747 1.2 2.5 1.437 3.919.747 4.153 5.145 6.855 9.361 7.071s8.278-1.466 12.134-3.186c2.779-1.236 5.873-2.946 6.707-5.749-1.332 1.822-3.688 3.077-5.854 4.04z"/><path d="M864.027 293.656c-10.142-5.835-13.974-7.272-13.993-7.272l-.211-.149a8.436 8.436 0 01-2.553-3.229 6.8 6.8 0 010-.695.293.293 0 000 .067c.158-3.09 2.357-5.9 4.441-8.355l5.332-6.271a6.182 6.182 0 001.375-2.175 5.021 5.021 0 00.144-1.337v-.54a260.6 260.6 0 00-.129-4.676c-.048-1.361-.4-3.076-1.758-3.353-.709-.144-1.648.11-2.022-.479a1.164 1.164 0 01-.091-.81.274.274 0 000 .067v-.077a18.04 18.04 0 00.5-3.2 4.369 4.369 0 00-.22-1.624c-.786-2.256-3.5-3.186-5.9-3.612s-5.092-.79-6.6-2.668a19.507 19.507 0 00-1.313-1.806 5.178 5.178 0 00-2.453-1.212 13.892 13.892 0 00-8.925.776 8.011 8.011 0 01-3.6 1.14c-1.274-.077-2.453-1-3.756-1.217-2.108-.359-4.125 1.188-5.164 3.023a7.392 7.392 0 00-.958 3.564v.211a5.212 5.212 0 001.37 3.641c.91.958 2.261 1.59 2.64 2.831.153.5.115 1.049.254 1.562a1.388 1.388 0 00.057.187l-.067.091a15.808 15.808 0 00-3.353 9.744 16.173 16.173 0 0011.363 15.33v.479a6.892 6.892 0 01-2.2 5.365l-14.367 5.739s-8.661-1.03-11.785 11.627a21.582 21.582 0 00-.537 6.419 18.609 18.609 0 01-2.4 9.615c-3.55 6.956-2.74 22.923 4.522 24.5 6.855 1.495 9.538.872 9.821.8v.278c-.115 3-1.2 28.839-5.155 31.962-1.092.867-.891 1.437 0 1.844 0 0 0 .168-.024.479-.12 1.916-.728 9.1-3.353 13.184-3.071 4.743-2.75 32.1-2.75 32.1l-2.093 16.125s1.289 9.959 0 11.7c-1.154 1.547-2.687 38.391-3.008 46.382h-.134a3.89 3.89 0 00-3.1 1.916c-1.7 2.755-7.636 7.847-7.636 7.847-1.289 1.83-6.055 3.583-8.575 4.407a5.32 5.32 0 00-.958.422 5.112 5.112 0 00-2.165 2.28 2.448 2.448 0 00-.23 1.916c.642 1.576 14.041 2.687 17.433 1.1 2.664-1.241 13.222-2.874 17.605-3.516a3.612 3.612 0 003.133-3.133 2.065 2.065 0 00-.4-1.567c-.838-1.04-1.265-3.88-1.437-5.749a3.882 3.882 0 00.987-.585 42.086 42.086 0 012.4-16.915c3.229-8.537 4.2-24.345 3.392-34.621 0 0 9.845-42.367 17.6-46.319.12.153 3.88 4.977 4.359 19.919.479 15.176 5.969 25.136 5.969 25.136s-2.424 25.768 0 35.411l-3.167 15.21c-.235-.2-.383-.35-.383-.35s.1.422.225 1.1l-.067.326.139.029a29.938 29.938 0 01.671 7.186c-.125 1.107-.436 2.625-.647 4.115-.335 2.343-.426 4.613.8 5.112 2.022.814 13.893 1.916 15.9-.69a3.732 3.732 0 00.584-3.9 3.951 3.951 0 00-.584-1s-3.152-5.15-2.261-8.781a2.673 2.673 0 00-.378-2.084A107.1 107.1 0 01856.9 486.9c2.022-7.607 6.28-24.288 3.147-35.253q-.177-.647-.4-1.265a47.348 47.348 0 01-1.777-18.5 37.7 37.7 0 010-16.125c1.94-8.853 3.3-17.548 3.3-17.548s1.068-11.7.134-18.87a4.7 4.7 0 00-.062-.479l.508-.115s-2.745-12.173-3.713-19.919c-.23-1.83-.527-4.144-.853-6.616a16.882 16.882 0 002.63-.656c8.714-3 11.459-30.18 11.459-30.18v-8.614s2.927-13.26-7.246-19.104zM799.086 503.6c-.268-.134-.426-.225-.426-.225z" transform="translate(-336.979 -94.903)" fill="url(#c)"/><path class="q" d="M520.96 355.66c3.78 10.87-.632 28.513-2.683 36.408a110.057 110.057 0 00-2.678 17.332 36.5 36.5 0 01-13.864-.316l3.31-16.226c-2.367-9.61 0-35.292 0-35.292s-5.356-9.926-5.83-25.05c-.479-14.884-4.134-19.7-4.249-19.847-7.559 3.938-17.169 46.161-17.169 46.161.786 10.237-.163 25.993-3.31 34.492a42.635 42.635 0 00-2.362 16.853 5.125 5.125 0 01-4.311.824c-4.5-.728-9.892-4.6-9.892-4.6s1.729-45.989 2.994-47.733 0-11.66 0-11.66l2.046-16.067s-.316-27.258 2.678-31.982c2.587-4.082 3.181-11.258 3.3-13.14v-.479l4.561-5.461s44.111-3.31 47.426 0c.81.81 1.313 2.659 1.61 4.982.91 7.147-.134 18.8-.134 18.8s-1.322 8.666-3.214 17.485a38.381 38.381 0 000 16.072 48.111 48.111 0 001.771 18.444z"/><path class="l" d="M519.386 424.736c-1.969 2.6-13.547 1.5-15.521.69-1.2-.479-1.111-2.764-.786-5.1.206-1.48.508-2.994.632-4.1.311-2.836-.958-8.589-.958-8.589s2.6 2.759 3.224 0a3 3 0 012.252-2.137 5.883 5.883 0 014.091.254c2.046.891 5.456 2.783 4.848 5.341-.867 3.617 2.2 8.752 2.2 8.752a3.983 3.983 0 01.575.987 3.78 3.78 0 01-.56 3.895z"/><path class="f" d="M519.392 424.735c-1.969 2.6-13.548 1.5-15.521.69-1.2-.479-1.111-2.764-.786-5.1 1.245.584 3.353 1.068 6.884.743a19.406 19.406 0 012.477-.077 57.613 57.613 0 007.521-.153 3.78 3.78 0 01-.575 3.897zm-45.482-65.927c.786 10.237-.163 25.993-3.31 34.492a42.636 42.636 0 00-2.362 16.853 5.125 5.125 0 01-4.311.824c.958-6.644 5-35.272 7.593-57.893a94.732 94.732 0 0116.766-43.479l2.755 3.032c-7.522 3.948-17.131 46.171-17.131 46.171z"/><path class="r" d="M512.986 168.076l-1.916 9.452-9.423 15.833-11.617-4.963s-15.809-16.542-5.868-18.9a8.8 8.8 0 003.3-1.466 6.816 6.816 0 002.573-5.7 17.477 17.477 0 00-1.6-6.774l20.321-6.381a32.624 32.624 0 00-1.437 8.23c-.158 5.538 1.916 8.264 3.588 9.581a6.1 6.1 0 002.079 1.088z"/><path class="f" d="M508.404 148.068a32.616 32.616 0 00-1.437 8.23 15.458 15.458 0 01-1.183 1.26 16.077 16.077 0 01-16.067 3.665 17.478 17.478 0 00-1.613-6.774z"/><path class="r" d="M510.686 144.159A16 16 0 11506 132.775a16.072 16.072 0 014.686 11.384z"/><path class="f" d="M512.986 169.238l-1.916 9.452-9.423 15.833-11.617-4.963s-15.809-16.542-5.868-18.9a8.8 8.8 0 003.3-1.466c-1.792 4.925 5.6 15.172 5.6 15.172.862 1.27 2.836.479 2.836.479 4.767-.723 13.538-14.429 14.97-16.709a6.1 6.1 0 002.118 1.102zm10.008 99.501c-2.8.637-18.276 4.062-24.144 3.2-6.458-.958-19.014-1.571-19.014-1.571s-8 .431-10.458-.695v-.479l4.561-5.461s44.111-3.31 47.426 0c.829.834 1.332 2.683 1.629 5.006z"/><path class="g" d="M495.193 188.28s-8.312-11.5-5.179-16l-14.041 5.749s-8.451-1.025-11.5 11.588a21.945 21.945 0 00-.522 6.4 18.935 18.935 0 01-2.314 9.581c-3.464 6.932-2.678 22.846 4.412 24.432s9.6.786 9.6.786-.958 28.829-5.04 32.14 10.443 2.52 10.443 2.52 12.556.632 19.018 1.576 24.575-3.31 24.575-3.31-2.678-12.13-3.626-19.847-3.157-24.159-3.157-24.159l16.067-21.768s2.836-13.155-7.09-18.985-13.646-7.259-13.646-7.259-9.974 16.24-15.172 17.025c.011 0-1.963.796-2.828-.469z"/><path class="f" d="M469.389 191.329s-.153 5.2.79 7.248 4.412 13.412 4.412 13.412h-7.88s4.254-4.57 3.943-6.779-1.265-13.881-1.265-13.881z"/><path class="r" d="M495.635 232.369s-17.4-4.254-19.018-7.876-6.089-11.732-6.089-11.732l1.835-2.472 8.46 6.64s10.06 8.034 14.812 8.824 0 6.616 0 6.616z"/><path class="s" d="M495.635 232.369s-17.4-4.254-19.018-7.876-6.089-11.732-6.089-11.732l1.835-2.472 8.46 6.64s10.06 8.034 14.812 8.824 0 6.616 0 6.616z"/><path class="r" d="M513.015 211.794v9.434h-1.514a44.115 44.115 0 00-21.431 5.552l-2.838 1.572-.762.426-4.886-11.018 4.57-4.1h.235c1.116.11 5.95.513 8-.177 1.945-.661 4.359-2.755 10.089-1.293 2.822.723 5.236 3.885 7.971 2.9z"/><path class="f" d="M531.603 193.514l3.147 3.545v8.589s-2.678 27.1-11.181 30.089-23.694-1.734-23.694-1.734-3.923-10.4-2.089-11.018 16.216-4.426 16.216-4.426-.2-15.895 2.946-20.623c0 0-2.046-14.807 5.044-15.124s9.611 10.702 9.611 10.702z"/><path class="g" d="M532.181 193.514l3.152 3.545v8.589s-2.678 27.1-11.186 30.089-23.694-1.734-23.694-1.734-3.923-10.4-2.084-11.018 16.212-4.426 16.212-4.426-.206-15.895 2.946-20.623c0 0-2.05-14.807 5.04-15.124s9.614 10.702 9.614 10.702z"/><path class="f" d="M506.428 150.836a6.334 6.334 0 00-.359-3.071 2.338 2.338 0 00-2.5-1.437c-1.346.316-1.916 2.07-3.248 2.491a2.6 2.6 0 01-2.874-1.475 7.35 7.35 0 01-.546-3.43v-3.947a6.533 6.533 0 00-.929-4.105c-1.1-1.4-3.679-2.012-5.4-1.955a4.585 4.585 0 00-3.085 1.241 3.971 3.971 0 01-3.243 1.155 2.793 2.793 0 01-2.261-1.954v-.048a16.067 16.067 0 1123.884 21.325 43.326 43.326 0 00.565-4.79z"/><path d="M485.351 135.304a2.817 2.817 0 01-2.266-1.959c-.129-.508-.1-1.049-.244-1.552-.369-1.241-1.691-1.883-2.577-2.826-1.773-1.883-1.658-4.977-.4-7.243 1.016-1.825 2.98-3.353 5.04-3.008 1.274.22 2.4 1.126 3.67 1.212a7.4 7.4 0 003.511-1.135 13.231 13.231 0 018.728-.776 5.03 5.03 0 012.4 1.212 20.956 20.956 0 011.279 1.8c1.466 1.868 4.1 2.237 6.438 2.659s4.992 1.351 5.749 3.6c.513 1.495 0 3.114-.278 4.666a1.409 1.409 0 00.062.958c.369.6 1.284.35 1.974.479 1.327.283 1.667 1.993 1.72 3.353q.081 2.328.125 4.661a5.933 5.933 0 01-.139 1.725 6.088 6.088 0 01-1.337 2.17l-5.2 6.252c-2.309 2.769-4.757 6-4.311 9.581-1.092.479-2.4-.455-2.75-1.6a7.154 7.154 0 01.172-3.55 43.537 43.537 0 00.833-6.156 6.314 6.314 0 00-.359-3.066 2.338 2.338 0 00-2.5-1.437c-1.351.316-1.916 2.07-3.248 2.491a2.6 2.6 0 01-2.874-1.475 7.33 7.33 0 01-.546-3.425v-3.957a6.533 6.533 0 00-.929-4.105c-1.1-1.4-3.679-2.012-5.4-1.955a4.585 4.585 0 00-3.08 1.241 3.978 3.978 0 01-3.263 1.165z" fill="#7c5c5c"/><path class="f" d="M485.59 190.878l4.934 20.269s3.89-.024-4.934-20.269zm18.977-3.671s-6.458 10.577-3.938 21.519l1.2.086s-2.143-5.063 2.738-21.605zm6.275 64.894s7.933-2.625 8.508 3.464c.019-.001-1.476-4.172-8.508-3.464zm-28.869-37.682s-1.576 11.018 1.26 15.44a34.552 34.552 0 01-13.864 1.892l-.958-17.332z"/><path class="f" d="M483.46 228.456l-.762.426-4.886-11.018 4.57-4.1h.235c-.074.55-1.348 10.021.843 14.692z"/><path class="g" d="M481.749 213.902s-1.576 11.018 1.26 15.435a34.451 34.451 0 01-13.864 1.892l-5.514-17.327z"/><path class="l" d="M464.248 418.029a3.569 3.569 0 01-3.061 3.124c-4.278.637-14.582 2.266-17.184 3.507-3.31 1.576-16.384.479-17.016-1.1a2.5 2.5 0 01.225-1.916 5.05 5.05 0 012.113-2.271 5.6 5.6 0 01.958-.422c2.462-.819 7.114-2.563 8.369-4.393 0 0 5.8-5.073 7.454-7.813a3.785 3.785 0 013.028-1.887c1.38-.062 2.918.632 3.55 3.655 0 0 7.555 4.311 9.581.532 0 0 .316 5.806 1.571 7.4a2.108 2.108 0 01.412 1.584z"/><path class="f" d="M464.248 418.028a3.569 3.569 0 01-3.061 3.123c-4.278.637-14.582 2.266-17.184 3.507-3.31 1.576-16.384.479-17.016-1.1a2.5 2.5 0 01.225-1.916 5.05 5.05 0 012.113-2.271c2.132 1.437 6.865 2.8 17.275 1.174 9.931-1.552 14.851-3.071 17.246-4.105a2.108 2.108 0 01.4 1.59z"/><path d="M516.368 132.736v-.075a14.108 14.108 0 00.479-3.578 23.625 23.625 0 01-.479 2.874 1.743 1.743 0 000 .779zm-9.194 14.745a4.557 4.557 0 01.388 1.8 5.433 5.433 0 00-.388-2.51 2.329 2.329 0 00-2.5-1.437c-1.351.316-1.916 2.07-3.253 2.491a2.6 2.6 0 01-2.874-1.475 7.29 7.29 0 01-.546-3.43v-3.947a6.534 6.534 0 00-.929-4.106c-1.1-1.4-3.679-2.012-5.4-1.959a4.589 4.589 0 00-3.085 1.246 3.981 3.981 0 01-3.248 1.155 2.807 2.807 0 01-2.261-1.955c-.129-.508-.1-1.054-.244-1.557-.369-1.236-1.691-1.883-2.577-2.822a5.159 5.159 0 01-1.327-3.353 5.37 5.37 0 001.327 4.038c.886.958 2.208 1.586 2.577 2.822.148.479.115 1.049.244 1.557a2.807 2.807 0 002.261 1.954 3.98 3.98 0 003.248-1.155 4.589 4.589 0 013.085-1.246c1.725-.053 4.312.556 5.4 1.959a6.572 6.572 0 01.929 4.105v3.947a7.251 7.251 0 00.546 3.425 2.608 2.608 0 002.874 1.48c1.322-.422 1.916-2.175 3.253-2.491a2.42 2.42 0 012.5 1.464zm12.946-4.336a6.053 6.053 0 01-1.341 2.165l-5.2 6.252c-2.189 2.63-4.5 5.677-4.311 9.035.158-3.08 2.3-5.883 4.311-8.326l5.2-6.252a6.053 6.053 0 001.341-2.165 5.977 5.977 0 00.139-1.729 4.555 4.555 0 01-.139 1.02zm-13.564 16.399a3.684 3.684 0 01-.158-.843 4.249 4.249 0 00.158 1.552c.355 1.14 1.653 2.084 2.75 1.6a6.724 6.724 0 01-.057-.69 2.226 2.226 0 01-2.693-1.619z"/><path class="f" d="M444.548 408.184s1.648 2.874 7.617.345m52.885.355s5.145 6.06 11.631 1.988m23.836-84.386s-3.636 2.271-3.751 3.569 1.878-.958 1.878-.958zm-17.967 19.157a7.6 7.6 0 01-4.479 1.749c-2.721.12-2.491 3.665-.714 2.6a44.584 44.584 0 005.193-4.349zm20.094 2.694s-1.744 8.57-3.162 6.918"/><path d="M244.773 510.871s10.946 3 16.216-.992 7.555-2.712 7.555-2.712 12.566-.695 13.6-3.665-4.819-13.758-4.819-13.758c-.417-.958-1.025-2.175-1.3-2.175l.057-4.551 1.82-19.042c4.2-10.774.077-24.7.077-24.7l-.752-3.454a8.738 8.738 0 01.714-5.749l7.631-15.33a22.945 22.945 0 011.437-2.941 75.04 75.04 0 011.916-3.258 115.204 115.204 0 014.147-6.113c3.377-4.68 5.155-10.539 6.074-14.851l.407 1.351h.091l.11.024h.182l.2.034h.072l2.347 29.874c.144 11.651 4.422 18.1 4.422 18.1l-.589 25.72c.8 6.194-.958 14.453-1.768 17.749l-1.849 4.173a5.015 5.015 0 00-2.726 3.794c-.364 3.08-3.607 9.72-3.607 9.72-1.255 1.59-3.981 5.888-3.981 5.888s-1.284 4.149-.489 5.7 7.444 1.394 7.444 1.394c7.593 1.682 13.413-2.4 13.045-5.2s1.183-3.521 1.183-3.521c3.018-.958 2.726-3 2.726-3a18.8 18.8 0 00-2.285-12.235l-.479 1.107a16.847 16.847 0 01.91-6.53l-.278.192-.086.053h-.029c.479-4.2 4.891-11.976 4.891-11.976 8.106-14.218 5.159-33.486 5.159-33.486l-1.255-6.007-.072-2.266a75.626 75.626 0 011.222-16.144c.436-2.357.886-5.2 1.231-8.34a73.715 73.715 0 014.158-16.369l.321-.057h.038c.441-.077.886-.153 1.337-.24h.086s.259-1.4.479-3.78c.129-1.519.235-3.444.235-5.658a63.652 63.652 0 00-3.023-19.694l.244-.35s.58-.786 1.638-2.146a248.657 248.657 0 018.7-10.462c6.683-7.622 4.719-15.33 4.719-15.33s-4.838-17.73-6.994-28.374a32.268 32.268 0 00-5.308-12.623 25.124 25.124 0 00.671-5.116c.144-3.152.034-6.438-1.384-9.27s-4.436-5.068-7.588-4.69a2.9 2.9 0 01-1.361 0 2.069 2.069 0 01-.9-.781c-1.844-2.544-1.964-5.964-1.389-9.049s1.753-6.036 2.28-9.131.287-6.529-1.682-8.982c-2.314-2.874-6.347-3.684-9.356-5.844-2.113-1.519-3.7-3.7-5.926-5.044s-4.311-.834-6.731-.326c-4.067.857-7.933 1.25-11.78 3a31.372 31.372 0 00-10.266 7.468 9.743 9.743 0 00-2.29 3.612c-.958 3.167.915 6.539.522 9.816-.278 2.323-1.648 4.345-2.735 6.419s-1.916 4.537-1.064 6.707c1.341 3.392 5.715 4.11 8.9 5.916a2.716 2.716 0 011.054.915c.786 1.37-.819 2.793-1.83 4.01a6.041 6.041 0 00-1.2 2.434 8.681 8.681 0 00-5.207 6.285c-1.078 4.824.58 10.913 2.041 14.937-1.6 8.963.479 12.5 2.007 13.854a7.689 7.689 0 012.664 5.241v.168c.1 1.629.273 3.253.5 4.872-.053-.378-.105-.781-.134-.958-1.25 2.314-3.631 8.225-4.973 18.17a54.62 54.62 0 01-1.212 6.328 34.606 34.606 0 00-1.016 11.315l.24 3.224a1.015 1.015 0 01-.651-.216l1.681 3.08v5.2a19.162 19.162 0 01-1.274 6.855c-.12.316-.249.632-.388.958a5.576 5.576 0 00-.565 2.822c-3.617 5.543-11.909 36.6-11.909 36.6-4.5 10.185.369 16.767.369 16.767s2.357 28.355 2.8 29.821 1.418 18.75 1.418 18.75v1.375a3.223 3.223 0 00-.819-.235c-3.943-.22-5.011 6.007-5.011 6.007l-8.067 7.7s-3.684-.623-9.1 3.444 3.509 7.778 3.509 7.778zm80.553-163.879l-.024-.086-.22.129-.091.053-.043.029L321.23 334a21.787 21.787 0 01-.273-10.793l2.874-12.589v-3.028l9.135 24.345c.585 3.277-4.843 11.225-7.641 15.057z" transform="translate(-116.868 -89.723)" fill="url(#d)"/><path class="v" d="M220.919 296.872a75.445 75.445 0 00-4.628 17.581c-.34 3.1-.781 5.912-1.212 8.24a75.3 75.3 0 00-1.178 15.938l.072 2.237 1.2 5.926s2.874 19.033-5.064 33.055c0 0-4.7 8.4-4.848 12.374l-3.186 1.231-6.438-1.806s3.109-11.148 2.1-18.961l.58-25.39s-4.182-6.352-4.326-17.849l-2.458-31.55zm-36.943-4.494s-.79 12.3-6.874 20.781-7.377 12.158-7.377 12.158l-7.492 15.148a8.676 8.676 0 00-.7 5.667l.738 3.411s4.053 13.749-.072 24.388l-1.955 20.551h-11.43s-.958-17.078-1.375-18.525-2.75-29.452-2.75-29.452-4.791-6.515-.364-16.57c0 0 9.988-37.629 12.661-36.978s26.99-.579 26.99-.579z"/><path d="M163.567 349.567l-.733-3.411a8.623 8.623 0 01.7-5.691l7.492-15.162s1.3-3.689 7.377-12.158c5.84-8.144 6.8-19.814 6.87-20.709l1.164-.057s-.79 12.3-6.874 20.781-7.377 12.158-7.377 12.158l-7.492 15.148a8.675 8.675 0 00-.7 5.667l.738 3.411s4.053 13.749-.072 24.388l-1.954 20.551h-1.165l1.955-20.551c4.124-10.64.071-24.365.071-24.365z"/><path class="f" d="M205.422 392.237c.144-3.976 4.848-12.374 4.848-12.374 7.962-14.036 5.064-33.055 5.064-33.055l-1.226-5.931-.072-2.237a75.3 75.3 0 011.178-15.938c.426-2.328.867-5.135 1.207-8.24a75.433 75.433 0 014.613-17.543l1.188-.048a75.444 75.444 0 00-4.628 17.581c-.34 3.1-.781 5.912-1.212 8.24a75.3 75.3 0 00-1.178 15.938l.072 2.242 1.2 5.926s2.874 19.033-5.064 33.055c0 0-4.7 8.4-4.848 12.374l-3.186 1.231-.671-.187z"/><path class="w" d="M199.741 392.094a5.538 5.538 0 005.27-.651 17.006 17.006 0 00-.431 9.552c1.3 5.212-12.158-4.2-12.158-4.2l2.874-6.568s1.115 2.082 4.445 1.867z"/><path class="f" d="M200.744 392.385a5.379 5.379 0 004.278-.958 17.006 17.006 0 00-.431 9.552c1.3 5.212-12.158-4.2-12.158-4.2l2.874-6.568a4.107 4.107 0 003.281 1.849c.742.09 1.451.191 2.156.325z"/><path class="v" d="M164.471 251.389h5.624v-31.91l-4.22-.757z"/><path class="s" d="M164.471 251.389h5.624v-31.91l-4.22-.757z"/><path class="x" d="M195.353 394.556a5.607 5.607 0 015.135 2.965l1.954 1.518.958-2.242a18.683 18.683 0 012.213 12.087s.287 2.022-2.678 2.965c0 0-1.519.723-1.159 3.473s-5.351 6.8-12.805 5.135c0 0-6.515.148-7.31-1.375s.508-5.571.508-5.571 2.678-4.244 3.9-5.811c0 0 3.186-6.563 3.55-9.581s3.851-5.231 5.734-3.563z"/><path class="w" d="M160.217 397.234l.057-4.5s-6.472 1.864-11.713-.244c0 0 .441 4.522-.287 5.14s2.424 6.438 2.424 6.438l3.521 3.689 6.055-2.2 1.643-5.174s-1.269-3.149-1.7-3.149z"/><path class="f" d="M160.217 397.234l.057-4.5s-6.472 1.864-11.713-.244c0 0 .441 4.522-.287 5.14s2.424 6.438 2.424 6.438l3.521 3.689 6.055-2.2 1.643-5.174s-1.269-3.149-1.7-3.149z"/><path class="x" d="M144.441 395.605s3.44.4 3 4.791.182 0 .182 0 3.655 1.48 4.958 3.545 3.655-1.844 3.832-2.965 1.643-1.586 1.643-1.586 5.749 10.659 4.733 13.591-13.356 3.607-13.356 3.607-2.247-1.265-7.421 2.678-15.919.958-15.919.958-8.757-3.655-3.435-7.665 8.934-3.4 8.934-3.4l7.923-7.636s1.055-6.139 4.926-5.918z"/><path class="y" d="M192.656 115.995c2.189 1.327 3.746 3.483 5.82 4.982 2.951 2.132 6.913 2.927 9.183 5.773 1.916 2.424 2.165 5.811 1.648 8.867s-1.677 5.974-2.237 9.021-.445 6.424 1.365 8.934a2.027 2.027 0 00.877.771 2.873 2.873 0 001.337 0c3.095-.374 6.065 1.84 7.454 4.632s1.5 6.041 1.356 9.155a18.92 18.92 0 01-1.528 7.459c-1.916 3.909-5.9 6.324-9.835 8.173a76.178 76.178 0 01-7.852 3.171 11.817 11.817 0 01-5.691.857c-3.272-.565-5.59-3.54-8.695-4.7-2.544-.958-5.365-.613-8.072-.374-2.309.2-4.949.2-6.539-1.49-2.041-2.165-1.121-5.658-.077-8.446a6.012 6.012 0 01-4.254-9.83c.987-1.2 2.563-2.606 1.792-3.962a2.625 2.625 0 00-1.035-.9c-3.119-1.782-7.416-2.5-8.728-5.84-.843-2.151-.029-4.585 1.04-6.63s2.4-4.048 2.687-6.338c.383-3.238-1.437-6.568-.513-9.691a9.715 9.715 0 012.247-3.574 30.833 30.833 0 0110.06-7.373c3.78-1.729 7.569-2.117 11.564-2.961 2.396-.51 4.379-1.047 6.626.314z"/><path class="v" d="M169.302 167.822s-9.164-.479-10.9 7.334 3.761 19 3.761 19z"/><path class="s" d="M169.302 167.822s-9.164-.479-10.9 7.334 3.761 19 3.761 19z"/><path class="v" d="M165.961 189.849l3.473 2.75 16.206.723 10.118-6.946 10.29-17.658a12.721 12.721 0 01-9.782-10.012 21.922 21.922 0 01-.2-8.364s-16.5-8.542-14.472 4.79a18.109 18.109 0 01.153 4.953c-.958 7.809-8.537 6.338-8.537 6.338l-2.908 4.484-3.329 11.018z"/><path class="f" d="M183.232 153.954a18.109 18.109 0 01.153 4.953 14.626 14.626 0 0014.52-1.361 21.921 21.921 0 01-.2-8.364s-16.499-8.54-14.473 4.772z"/><circle class="v" cx="14.616" cy="14.616" r="14.616" transform="translate(174.061 129.29)"/><path class="g" d="M177.351 190.764c.354 0 .7.053 1.054.086 1.916.192 9.921.623 14.482-4.824 5.1-6.094 11.895-13.619 12.173-13.926l6.913 2.089s-5.471-1.945-9.1 8.23a10.539 10.539 0 003.559 12.125 10.95 10.95 0 004.522 1.916.024.024 0 010 .024v4.465l-2.826 12.455a21.591 21.591 0 00.268 10.659l4.311 15.239c-.651.45-27.4 18.645-45.27 6.079.067-.546 2.275-18.429.742-27.181a60.452 60.452 0 01-.8-6.764v-.168a7.626 7.626 0 00-2.62-5.174c-1.61-1.437-3.789-5.27-1.634-15.4a37.2 37.2 0 012.4-7.3l5.989-13.536 5.523.11v.038c-.479.594-6.884 8.594-7.579 13.749-.682 4.901-1.52 6.405 7.893 7.009z"/><path class="v" d="M221.648 177.252s5.4 4.632 7.526 15.148 6.85 27.981 6.85 27.981 1.916 7.622-4.632 15.148-10.9 13.413-10.9 13.413l-4.311 6.352a5.408 5.408 0 01-3.1 2.194 10.486 10.486 0 01-7.6-.541 4.426 4.426 0 01-1.916-5.591l.958-2.218s-8.877 5.6-9.648 2.505 10.324-6.175 10.324-6.175 9.164-1.543 11.018-5.883c0 0 9.84-12.642 9.068-16.982l-9.5-25.471s-11.885-1.571-7.832-14.922 13.695-4.958 13.695-4.958z"/><path class="q" d="M159.768 277.991s21.711 4.34 26.827 3.761l.551 1.835s8.24 1.844 26.87-1.111q1.825-.287 3.789-.647l.436-.077s.254-1.38.455-3.732a64.716 64.716 0 00-3.157-26.271l-3.133-9.648s-19.363 11.607-32.183 10.539c-1.145-.1-2.28-.187-3.425-.225-2.63-.1-6.707 0-9.356-2.122l-5.557.958v15.809a18.941 18.941 0 01-1.255 6.764c-.12.316-.244.628-.383.958a5.03 5.03 0 00-.479 3.209z"/><path class="f" d="M191.047 280.103v4.92s9.485 2.122 31.1-1.835c0 0 .254-1.38.455-3.732-6.635 1.063-24.92 3.622-31.555.647zm-32.962-.864s21.711 4.34 26.827 3.76l.551 1.835v-4.92c-2.472 1.025-20.12-3.229-26.516-4.824-.12.316-.244.628-.383.958a5.03 5.03 0 00-.479 3.191z"/><path class="q" d="M219.504 273.519l1.61 9.984q1.825-.287 3.789-.647c-.5-2.917-1.6-9.581-1.3-10.688l-2.026-1.734z"/><path class="f" d="M219.771 273.287l1.61 9.988q1.825-.292 3.789-.647c-.5-2.917-1.6-9.581-1.3-10.688l-2.026-1.739z"/><path d="M180.073 252.632c-1.14-.1-2.28-.187-3.425-.225-2.558-.1-6.462 0-9.126-1.959l.929-.163c2.664 2.113 6.707 2.022 9.356 2.122 1.145.038 2.28.129 3.425.225.374.034.757.053 1.145.062a21.47 21.47 0 01-2.304-.062zm33.792 29.841q1.825-.287 3.789-.642l.441-.081s.254-1.38.45-3.732a64.547 64.547 0 00-3.157-26.271l-2.951-9.1c.628-.355.958-.561.958-.561l3.133 9.648a64.717 64.717 0 013.157 26.271c-.2 2.352-.455 3.732-.455 3.732l-.436.081q-1.959.354-3.789.642a119.331 119.331 0 01-19.521 1.677 123.116 123.116 0 0018.381-1.664zm-27.425-.724v.053h-.623q.355-.024.623-.053z" opacity=".05"/><ellipse class="w" cx=".819" cy="1.686" rx=".819" ry="1.686" transform="translate(221.491 271.582)"/><path class="v" d="M160.366 236.074c1.322-9.821 3.655-15.655 4.886-17.94.048.311.172 1.322.23 1.634a47.437 47.437 0 01.105 5.073l-1.226 22.209 1.643 6.946c1.543 5.5-4.173 1.154-4.173 1.154a3.4 3.4 0 01-3.353 2.319l-.3-3.986a34.426 34.426 0 011-11.176 53.256 53.256 0 001.188-6.232z"/><path class="s" d="M160.366 236.074c1.322-9.821 3.655-15.655 4.886-17.94.048.311.172 1.322.23 1.634a47.437 47.437 0 01.105 5.073l-1.226 22.209 1.643 6.946c1.543 5.5-4.173 1.154-4.173 1.154a3.4 3.4 0 01-3.353 2.319l-.3-3.986a34.426 34.426 0 011-11.176 53.256 53.256 0 001.188-6.232z"/><path class="v" d="M222.107 249.107c-1.04 1.346-1.61 2.117-1.61 2.117l-4.311 6.347a5.385 5.385 0 01-3.1 2.194 10.461 10.461 0 01-7.6-.541 4.417 4.417 0 01-1.916-5.586l.958-2.223s-8.877 5.6-9.648 2.51 10.324-6.175 10.324-6.175 9.164-1.543 11.018-5.888c0 0 .8-1.025 1.916-2.6"/><path class="q" d="M217.234 260.569s-10.5-1.02-13.821-7.023l-1.523 4.958s11.018 7.607 13.533 6.62z"/><path class="f" d="M216.79 260.515s-10.491-1.02-13.821-7.028l-1.519 4.944s11.018 7.607 13.528 6.621z"/><path class="q" d="M161.964 257.726s-3.674 1.3-4.4.58l1.653 3.042 3.123-2.4z"/><path class="f" d="M161.964 257.726s-3.674 1.3-4.4.58l1.653 3.042 3.123-2.4zm27.072 21.84v-6.347l-1.509 6.5zm13.441-144.138a5.637 5.637 0 01-3.938 2.074 31.027 31.027 0 01-4.575 0 11.474 11.474 0 00-6.9 1.739 17.551 17.551 0 00-3.167 3.353c-2.961 3.617-7.071 7-11.737 6.625a3.042 3.042 0 01-2.18-.92 3.5 3.5 0 01-.556-1.983 45.338 45.338 0 01.283-8.939 18.846 18.846 0 011.351-5.332 18.2 18.2 0 013.248-4.637 19.866 19.866 0 015.667-4.541 10.165 10.165 0 017.09-.915c2.793.762 4.968 2.946 7.631 4.072 3.041 1.279 11.118 4.692 7.783 9.404z"/><path class="y" d="M202.477 134.791a5.637 5.637 0 01-3.938 2.074 31.023 31.023 0 01-4.575 0 11.437 11.437 0 00-6.9 1.734 17.549 17.549 0 00-3.167 3.353c-2.961 3.617-7.071 7-11.737 6.625a3.023 3.023 0 01-2.18-.92 3.483 3.483 0 01-.556-1.983 45.335 45.335 0 01.283-8.939 18.844 18.844 0 011.351-5.332 18.079 18.079 0 013.248-4.632 19.8 19.8 0 015.667-4.546 10.166 10.166 0 017.09-.915c2.793.762 4.968 2.946 7.631 4.072 3.041 1.281 11.117 4.687 7.783 9.409z"/><path class="v" d="M165.836 248.768l-.038 1.749-.393-1.672z"/><path class="s" d="M165.836 248.768l-.038 1.749-.393-1.672z"/><path d="M210.41 180.471c-4.058 13.351 7.77 14.918 7.77 14.918l9.5 25.471c.771 4.34-9.073 16.982-9.073 16.982-.685 1.619-2.4 2.85-4.264 3.761a6.678 6.678 0 002.529-2.778s9.84-12.637 9.068-16.978l-9.5-25.476s-11.823-1.566-7.77-14.918c1.356-4.46 3.353-6.491 5.375-7.219-1.393 1.121-2.672 3.061-3.635 6.237z"/><g opacity=".1"><path d="M204.583 192.522a9.981 9.981 0 001.916 1.816 10.889 10.889 0 004.522 1.916v.5a10.855 10.855 0 01-4.1-1.816 9.94 9.94 0 01-2.338-2.416zm-36.753 19.1v.168a61.876 61.876 0 00.824 6.788c1.437 8.259-.445 24.657-.714 26.923-.153-.1-.307-.2-.479-.307.072-.546 2.28-18.429.747-27.177a60.7 60.7 0 01-.8-6.764v-.168a7.392 7.392 0 00-1.289-3.665 7.449 7.449 0 011.711 4.202zm8.817-41.333l-4.685-.091a.024.024 0 00-.024 0l-5.988 13.538a37.326 37.326 0 00-2.4 7.3c-1.744 8.192-.647 12.273.685 14.29-1.5-1.768-3.047-5.8-1.116-14.851a36.93 36.93 0 012.371-7.3l6.031-13.538 5.523.11v.034c-.035.053-.183.235-.397.508zm35.309 3.675l.081.024z"/><path d="M210.236 173.887l-4.695-1.413h-.024c-.278.307-7.066 7.833-12.168 13.926-4.561 5.447-12.556 5.02-14.482 4.829-.35-.038-.7-.067-1.054-.091-5.236-.335-7.3-.958-7.986-2.28.982.958 3.143 1.437 7.55 1.705.354 0 .7.053 1.054.086 1.916.192 9.921.618 14.482-4.824 5.1-6.1 11.895-13.624 12.173-13.931l6.831 2.069a4.268 4.268 0 00-1.681-.076z"/></g><path class="f" d="M149.613 402.565s-6.611 1.806-7.89-1.03m57.525-.325s-7.665 1.978-9.437-1.083"/><path d="M558.754 751.233c.11-.958.268-1.916.441-2.874a20.034 20.034 0 00-.958-9.715c-.177-.5-.307-.786-.307-.786-3.052-.833-15.081 8.5-19.464 12.015-1.519 0-3.167.067-4.968.187a25.76 25.76 0 01-2.357.062h-2.874c-4.067-3.277-16.657-13.131-19.79-12.278 0 0-.129.283-.307.786a19.684 19.684 0 00-.982 9.715c.172.958.331 1.916.441 2.874.235 2.1 1.116 6.141 4.311 8.867.685 4.982 3.248 11.531 5.222 15.507a11.1 11.1 0 00.671 2.189c-.814 3.143-1.753 7.243-1.485 8.623 0 0-4.254-1.03-4.685 4.091v.158c-1.538.7-3.459 2.319-1.3 5.7a2.218 2.218 0 001.111.905c.383.134.757.134.719-.4l2.659 2.994s4.819.556 4.877-2.242l.283.043c.647.1 1.322.177 2.017.249l.335 1.107s-3.617-.077-2.63 2.151c0 0 .91.843 1.222.536 0 0-.479 1.461 1.408 1.461 0 0 2.026 1.073 2.817.307s2.429-1.916 2.582-2.4c.043-.129.062-1.265.072-2.836h.311c4.038.1 8.326-.034 12.225-.244h.316c0 1.7.024 2.956.067 3.09.158.479 1.8 1.614 2.587 2.4s2.812-.307 2.812-.307c1.878 0 1.408-1.461 1.408-1.461.316.307 1.226-.536 1.226-.536.987-2.228-2.635-2.151-2.635-2.151l.431-1.437 2-.168.316-.029c-.192 3.042 4.872 2.458 4.872 2.458l2.664-2.994c-.043.537.331.537.714.4a2.2 2.2 0 001.078-.915c3.262-5.1-2.764-6.185-2.764-6.185a2.959 2.959 0 00-.57-.091.983.983 0 01.024-.263 10.505 10.505 0 00.038-2.022 4.447 4.447 0 00-3.588-2.611c-1.226-.153-1.25-5.787-1.126-9.691a11.151 11.151 0 00.192-2.223 11.726 11.726 0 00-.479-3.559c2.4-4.062 4.311-8.321 4.527-9.581a13.938 13.938 0 004.273-8.876z" transform="translate(-232.417 -354.311)" fill="url(#e)"/><path class="g" d="M321.798 435.749c-.192 2.654-.7 6.913-.7 6.913s-2.132.259-5.428.556l-2.237.192c-1.715.139-3.641.273-5.677.388-3.761.206-7.89.335-11.785.24a74.445 74.445 0 01-5.581-.316 48.661 48.661 0 01-2.256-.273c-4.465-.666-7.665-1.94-7.938-4.177a12.932 12.932 0 01-.1-2.874c.417-5.03 4.513-4.014 4.513-4.014-.263-1.389.728-5.706 1.533-8.829.508-1.969.958-3.463.958-3.463l28.8-1.916h.1a1.409 1.409 0 011.408 1.48c-.172 3.454-.417 11.363 1 11.54a4.341 4.341 0 013.464 2.563 10.744 10.744 0 01-.074 1.99zm-27.117-37.913s-10.86 13.073-16.091 9.452a6.64 6.64 0 01-.359-.263c-3.516-2.664-4.441-6.956-4.685-9.136a41.707 41.707 0 00-.426-2.817 19.561 19.561 0 01.958-9.538c.172-.479.292-.771.292-.771 3.616-1.006 20.311 13.073 20.311 13.073z"/><path class="g" d="M288.358 399.044s-3.42 2.4-8.245 6.333a17.428 17.428 0 01-2.4 1.648c-3.516-2.664-4.441-6.956-4.685-9.136a41.707 41.707 0 00-.426-2.817 19.56 19.56 0 01.963-9.537c6.764.469 14.793 13.509 14.793 13.509z"/><path class="ab" d="M288.358 399.044s-3.42 2.4-8.245 6.333a17.428 17.428 0 01-2.4 1.648c-3.516-2.664-4.441-6.956-4.685-9.136a41.707 41.707 0 00-.426-2.817 19.56 19.56 0 01.963-9.537c6.764.469 14.793 13.509 14.793 13.509z"/><path class="f" d="M284.734 397.756s-1.825 1.289-4.4 3.382a9.279 9.279 0 01-1.265.877 7.052 7.052 0 01-2.5-4.872 20.254 20.254 0 00-.225-1.509 10.471 10.471 0 01.532-5.088c3.576.249 7.858 7.21 7.858 7.21z"/><path class="g" d="M307.268 397.836s10.86 13.073 16.091 9.452c.12-.086.244-.172.359-.263 3.516-2.664 4.441-6.956 4.685-9.136.105-.958.259-1.883.422-2.817a19.5 19.5 0 00-.958-9.538c-.172-.479-.3-.771-.3-.771-3.604-1.006-20.299 13.073-20.299 13.073z"/><path class="g" d="M313.661 399.044s3.425 2.4 8.249 6.333a17.424 17.424 0 002.371 1.648c3.516-2.664 4.441-6.956 4.685-9.136.105-.958.259-1.883.422-2.817a19.5 19.5 0 00-.958-9.538c-6.731.47-14.769 13.51-14.769 13.51z"/><path class="ab" d="M313.661 399.044s3.425 2.4 8.249 6.333a17.424 17.424 0 002.371 1.648c3.516-2.664 4.441-6.956 4.685-9.136.105-.958.259-1.883.422-2.817a19.5 19.5 0 00-.958-9.538c-6.731.47-14.769 13.51-14.769 13.51z"/><path class="f" d="M317.414 397.746s1.816 1.284 4.374 3.353a8.774 8.774 0 001.26.872 7.075 7.075 0 002.486-4.843c.053-.479.134-1 .225-1.5a10.491 10.491 0 00-.5-5.059c-3.586.26-7.845 7.177-7.845 7.177zm-1.443 20.436a26.013 26.013 0 01-4.158 5.3c-4.311 3.832-22.927 2.309-24.135 2.113-.254-.043-.781-.8-1.437-2.017.508-1.969.958-3.464.958-3.464z"/><path class="g" d="M301.153 396.74a25.37 25.37 0 01-2.275.057c-3.885-.067-16.973.105-18.424 5.389-1.71 6.228 5.935 22.9 7.138 23.1s19.814 1.71 24.139-2.113 9.955-15.809 9.653-16.9c-.001.01 5.365-11.305-20.231-9.533z"/><path class="f" d="M299.417 406.838a13.742 13.742 0 00-14.075 7.952 11.5 11.5 0 00.849 11.589c1.495 2.1 3.689 3.67 6.74 2.4 6.783-2.8 6.486-21.941 6.486-21.941z"/><path class="f" d="M299.058 406.236a13.743 13.743 0 00-14.075 7.952 11.5 11.5 0 00.852 11.587c1.495 2.1 3.689 3.67 6.74 2.4 6.78-2.797 6.483-21.939 6.483-21.939z"/><path class="g" d="M299.058 406.537a13.742 13.742 0 00-14.075 7.952 11.5 11.5 0 00.852 11.588c1.495 2.1 3.689 3.669 6.74 2.4 6.78-2.797 6.483-21.94 6.483-21.94z"/><path class="ab" d="M299.058 406.537a13.742 13.742 0 00-14.075 7.952 11.5 11.5 0 00.852 11.588c1.495 2.1 3.689 3.669 6.74 2.4 6.78-2.797 6.483-21.94 6.483-21.94z"/><path class="ac" d="M288.271 414.781s-1.308 1.207-.8 1.509.8-1.509.8-1.509zm1.774 1.542s-.714 1.576-.206 1.749.81-1.131.81-1.131zm-3.758 2.381s-.7 1.859 0 1.859 0-1.859 0-1.859z"/><path class="ad" d="M285.682 423.682s1.4 3.574 5.04 3.32m-1.328-2.266a2.521 2.521 0 003.013.4"/><path class="f" d="M303.779 406.838a13.742 13.742 0 0114.075 7.952 11.5 11.5 0 01-.851 11.589c-1.49 2.1-3.689 3.67-6.74 2.4-6.803-2.8-6.484-21.941-6.484-21.941z"/><path class="f" d="M304.112 406.236a13.743 13.743 0 0114.075 7.952 11.5 11.5 0 01-.848 11.588c-1.49 2.1-3.689 3.67-6.74 2.4-6.769-2.798-6.487-21.94-6.487-21.94z"/><path class="g" d="M304.112 406.537a13.743 13.743 0 0114.075 7.952 11.5 11.5 0 01-.848 11.588c-1.49 2.1-3.689 3.669-6.74 2.4-6.769-2.797-6.487-21.94-6.487-21.94z"/><path class="ab" d="M304.112 406.537a13.743 13.743 0 0114.075 7.952 11.5 11.5 0 01-.848 11.588c-1.49 2.1-3.689 3.669-6.74 2.4-6.769-2.797-6.487-21.94-6.487-21.94z"/><path class="ac" d="M315.079 414.781s1.308 1.207.8 1.509-.8-1.509-.8-1.509zm-1.774 1.542s.714 1.576.206 1.749-.81-1.131-.81-1.131zm3.767 2.381s.695 1.859 0 1.859 0-1.859 0-1.859z"/><path class="ad" d="M317.618 423.682s-1.4 3.574-5.04 3.32m1.358-2.266a2.526 2.526 0 01-3.018.4"/><path class="ac" d="M297.148 433.837c.254-.048 5.03-2.113 9.955 0z"/><path class="f" d="M285.196 443.462c-4.465-.666-7.665-1.94-7.938-4.177a12.932 12.932 0 01-.1-2.874 6.448 6.448 0 011.705-.623c.81-.225 1.811-.072 3.923.532s1.959 3.09 2.4 6.333a2.677 2.677 0 01.014.81z"/><path class="g" d="M278.308 436.098s-5.806 1.063-2.664 6.074a2.141 2.141 0 001.073.886c.369.129.723.129.685-.4l2.568 2.941s5.126.6 4.676-2.64-.3-5.749-2.4-6.333-3.117-.754-3.938-.528z"/><path class="ad" d="M280.055 439.471s1.231 2.812 2.941.45m-6.284.666s.637 2.664 3.052.68"/><path class="f" d="M325.359 435.749c-.192 2.654-.7 6.913-.7 6.913s-2.132.259-5.428.556a2.78 2.78 0 010-.556c.45-3.243.3-5.749 2.4-6.333 1.955-.528 2.956-.728 3.728-.58z"/><path class="g" d="M326.3 436.098s5.811 1.063 2.668 6.074a2.161 2.161 0 01-1.073.886c-.369.129-.728.129-.69-.4l-2.563 2.941s-5.131.6-4.676-2.64.3-5.749 2.4-6.333 3.134-.754 3.934-.528z"/><path class="ad" d="M324.645 439.471s-1.236 2.812-2.941.45m6.282.666s-.642 2.664-3.056.68"/><path class="f" d="M294.564 444.037a74.445 74.445 0 01-5.581-.316l-1.739-5.854a3.8 3.8 0 01-.158-1.068 3.727 3.727 0 017.449-.024c.019 2.28.039 5.169.029 7.262z"/><path class="g" d="M286.834 437.866l2.05 6.908s-3.487-.077-2.534 2.113c0 0 .877.829 1.179.527 0 0-.455 1.437 1.356 1.437 0 0 1.955 1.059 2.711.3s2.343-1.887 2.5-2.338c.1-.3.067-6.074.034-10.06a3.717 3.717 0 00-3.722-3.689 3.722 3.722 0 00-3.569 4.8z"/><path class="ad" d="M289.477 446.561s-1.523 1.437-.719 2.285m-.106-3.2a2.069 2.069 0 00-1.408 1.768"/><path class="f" d="M317.435 436.798a3.8 3.8 0 01-.153 1.068l-1.624 5.543c-1.715.139-3.641.273-5.677.388 0-2.07 0-4.824.034-7.023a3.722 3.722 0 017.444.024z"/><path class="g" d="M317.675 437.866l-2.05 6.908s3.492-.077 2.539 2.113c0 0-.877.829-1.178.527 0 0 .45 1.437-1.36 1.437 0 0-1.955 1.059-2.711.3s-2.338-1.887-2.491-2.338c-.1-.3-.067-6.074-.033-10.06a3.717 3.717 0 013.722-3.689 3.722 3.722 0 013.564 4.8z"/><path class="ad" d="M315.122 446.561s1.523 1.437.719 2.285m.117-3.2a2.069 2.069 0 011.409 1.768"/><path class="f" d="M300.558 405.028s-7.095-.225-7.32 5.27 11.085 3.167 11.085 3.167 4.752-.637 3.923-3.976-2.557-4.16-7.688-4.461z"/><path class="f" d="M300.558 404.424s-7.095-.225-7.32 5.27 11.085 3.167 11.085 3.167 4.752-.637 3.923-3.976-2.557-4.16-7.688-4.461z"/><path class="ac" d="M300.558 404.726s-7.095-.225-7.32 5.27 11.085 3.167 11.085 3.167 4.752-.637 3.923-3.976-2.557-4.16-7.688-4.461z"/><path class="f" d="M282.094 432.405s2.4.853 2.874 2.486m36.759-3.693s-1.7.714-1.581 3.693"/><ellipse class="g" cx="1.11" cy="1.841" rx="1.11" ry="1.841" transform="rotate(-29.887 972.017 -304.768)"/><ellipse class="g" cx="1.835" cy="1.107" rx="1.835" ry="1.107" transform="rotate(-60 545.291 -55.974)"/><ellipse class="ab" cx="1.11" cy="1.841" rx="1.11" ry="1.841" transform="rotate(-29.887 972.017 -304.768)"/><ellipse class="ab" cx="1.835" cy="1.107" rx="1.835" ry="1.107" transform="rotate(-60 545.291 -55.974)"/><ellipse class="a" cx="12.901" cy="2.18" rx="12.901" ry="2.18" transform="translate(79.358 380.538)"/><ellipse class="a" cx="12.901" cy="2.18" rx="12.901" ry="2.18" transform="translate(28.535 411.451)"/><ellipse class="g" cx="19.263" cy="3.258" rx="19.263" ry="3.258" transform="translate(8.741 382.718)"/><path class="g" d="M20.037 380.649a5.571 5.571 0 01-1.84-2.769 2.469 2.469 0 011.284-2.822c1.178-.45 2.438.364 3.392 1.188s2.05 1.768 3.3 1.6a5.025 5.025 0 01-1.552-4.7 1.916 1.916 0 01.431-.958c.652-.7 1.84-.4 2.625.153 2.486 1.753 3.186 5.135 3.2 8.182a15.09 15.09 0 00.048-3.353 3.449 3.449 0 011.265-2.98 3.831 3.831 0 011.912-.487 4.007 4.007 0 013.133.891 3.081 3.081 0 01-.125 3.828 12.526 12.526 0 01-3.238 2.6 7.147 7.147 0 00-2.319 2.208 2.259 2.259 0 00-.172.393h-7a19.373 19.373 0 01-4.345-2.975z"/><ellipse class="a" cx="12.901" cy="2.18" rx="12.901" ry="2.18" transform="translate(581.141 398.771)"/><path d="M585.38 390.819s7.358-.225 9.581-1.806 11.315-3.464 11.866-.929 11.061 12.594 2.75 12.661-19.3-1.293-21.514-2.644-2.683-7.282-2.683-7.282z" fill="#a8a8a8"/><path d="M609.721 399.868c-8.307.067-19.3-1.293-21.514-2.644-1.686-1.025-2.357-4.709-2.582-6.41h-.244s.479 5.935 2.678 7.282 13.207 2.711 21.514 2.644c2.4 0 3.229-.872 3.181-2.137-.332.786-1.247 1.265-3.033 1.265z" opacity=".2"/></g></svg>