<svg xmlns="http://www.w3.org/2000/svg" width="590" height="285.545" viewBox="0 0 590 285.545"><defs><style>.a{fill:#fff}.c{fill:#fa8b18}.d{fill:#f0f0f0}.e{fill:#ffb7b7}.f{fill:#ffb8b8}.g{fill:#747572}.h{fill:#a0616a}</style></defs><path class="a" d="M80.272 228.294h443.724V3.66H80.272z"/><path d="M527.658 231.954H76.612V0h451.046zm-443.726-7.32h436.4V7.32h-436.4z" fill="#e5e5e5"/><path class="c" d="M287.368 51.18v76.243H176.537l-20.476 24.567 2.338-24.567h-9.962V51.18z"/><path class="d" d="M354.441 55.703v48.884h71.06l13.128 15.751-1.5-15.751h6.387V55.703z"/><path class="e" d="M61.172 278.334h6.411l3.05-24.728h-9.462z"/><path d="M59.536 276.242h12.626a8.047 8.047 0 018.046 8.045v.262H59.536z"/><path class="e" d="M138.196 278.122l6.226-1.532-2.947-24.741-9.188 2.261z"/><path d="M136.108 276.482l12.26-3.017a8.047 8.047 0 019.736 5.89l.063.254-20.073 4.94zm-78.879-4.046l1.332-6.814s2.452-26.31 20.045-52.567l5.727-28.524s-1.7-21.591 14.714-33.277l5.061-3.486 17.743 1.017 4.1 22.436 8.257 53.085s2.131.2 2.93 6.339a18.461 18.461 0 012.8 8.557s4.226 11.657 5.358 20.241l-.133 8.4-8.923 4.754-18.6-52.6-13.3-29.4s-6.4 20.717-16.208 38.465c0 0-13.431 29.071-16.115 34.978l-2.93 9.666z"/><circle class="e" cx="12.682" cy="12.682" r="12.682" transform="translate(103.872 77.26)"/><circle class="f" cx="12.682" cy="12.682" r="12.682" transform="translate(103.872 77.26)"/><path class="g" d="M99.084 151.391l4.187-10.458a47.035 47.035 0 01.517-29.327l.8-.66c6.978-5.747 13.1-4.7 18.786 2.329a15.715 15.715 0 003.18 3c2.507 1.759 6.483 11.313 1.233 16.914l-4.2 24.5c.442 13.532-9.374 8.437-24.503-6.298z"/><path class="e" d="M159.114 137.168a4.643 4.643 0 00-6.939 1.6l-10.579-.824-2.068 6.307 14.955.953a4.668 4.668 0 004.63-8.033z"/><path class="g" d="M148.987 147.399l-30.144-5.628-9.808-16.438a7 7 0 1113.171-4.75l4.6 12.716 23.839 3.946z"/><circle cx="12.167" cy="12.167" r="12.167" transform="translate(81.781 62.83)"/><path d="M83.453 85.073a12.168 12.168 0 0018.789-6.389 12.168 12.168 0 11-23.735-4.99 12.163 12.163 0 004.946 11.379z"/><path d="M131.47 85.087c-2.124-3.8-2.937-5.391-5.676-7.7-2.422-2.045-5.4-2.646-7.8-.708a14.473 14.473 0 108.584 11.581c2.086-.297 2.804-2.88 4.892-3.173z"/><path class="h" d="M505.506 176.112a5.747 5.747 0 017.017-5.332l7.6-10.711 7.639 3.034-10.945 14.975a5.778 5.778 0 01-11.307-1.963z"/><path class="g" d="M513.843 166.9l13.513-22.726-5.506-14.685 7.5-20 .276.119c.181.078 4.442 1.979 5.073 8.787l8.617 27.081-23 29.834z"/><path class="h" d="M440.455 83.352a5.747 5.747 0 014.773 7.408l10.091 8.405-3.612 7.378-14.084-12.07a5.778 5.778 0 012.832-11.121z"/><path class="g" d="M448.993 92.376l21.614 15.229 15.063-4.354 19.356 9.022-.14.267c-.091.175-2.316 4.275-9.153 4.379l-27.666 6.5-27.966-25.234z"/><path class="h" d="M488.542 277.572h-7.514l-3.574-28.983h11.09z"/><path d="M475.661 275.425h14.491v9.124h-23.615a9.124 9.124 0 019.124-9.124z"/><path class="h" d="M518.573 277.572h-7.514l-3.574-28.983h11.088z"/><path d="M505.693 275.425h14.491v9.124h-23.615a9.124 9.124 0 019.124-9.124zm15.553-103.642l-.613 42.9-.613 56.386-13.483-1.226-6.742-77.837-8.581 77.837h-13.92l-1.4-78.451 4.9-17.161z"/><path class="g" d="M479.451 174.496l-2.054-.089 9.541-52.561-3.907-15.887a3.477 3.477 0 012.155-4.084l7.029-2.636 2.483-6.829 19.593 2.111.482 5.337c2.123.681 19.607 6.5 18.4 13.138-1.191 6.548-8.221 27.151-8.578 28.2l-1.231 29.547-.151.076c-.182.091-13.687 6.731-28.358 6.73a37.3 37.3 0 01-15.4-3.048z"/><circle class="h" cx="14.107" cy="14.107" r="14.107" transform="translate(489.621 60.817)"/><path d="M515.154 88.58c-2.688 2.864-7.681 1.326-8.031-2.586a4.722 4.722 0 01.006-.913c.181-1.733 1.182-3.306.942-5.136a2.693 2.693 0 00-.493-1.261c-2.142-2.869-7.171 1.283-9.193-1.314-1.24-1.592.218-4.1-.734-5.879-1.256-2.349-4.975-1.19-7.307-2.477-2.595-1.431-2.44-5.413-.732-7.835a12.324 12.324 0 019.343-4.756 25.062 25.062 0 0110.557 2.06c3.826 1.491 7.62 3.552 9.975 6.916 2.864 4.091 3.139 9.592 1.707 14.376-.872 2.911-3.849 6.466-6.04 8.805z"/><path class="f" d="M362.314 273.675l2.1-5.391-19.8-10.649-3.093 7.956z"/><path d="M373.542 259.612a7.255 7.255 0 00-9.4 4.135l-1.414 3.634-2.18 5.609-.533 1.375 6.989 2.715 6.756-17.384z"/><path d="M360.554 263.301l-.911 2.417-2.275 6.033-.055.151c-5.8.745-12.149-.715-18.025-2.983a73.255 73.255 0 01-6.9-3.079 100.293 100.293 0 01-8.673-4.967c-3.574-2.294-5.784-4.016-5.784-4.016s-.584.528-1.64 1.432a184.407 184.407 0 01-6.545 5.331q-1.64 1.283-3.522 2.684c-9.245 6.854-21.111-11.446-21.111-11.446s3.338-2.125 4.209-2.537c2.807-1.328 9.4-4.463 15.094-7.248 2.932-1.437 5.62-2.785 7.424-3.742 6.39-3.4 14.334 3.036 14.334 3.036z" fill="#2f2e41"/><path d="M360.554 263.301l-.911 2.417-2.275 6.033-.055.151c-5.8.745-12.149-.715-18.025-2.983a73.255 73.255 0 01-6.9-3.079 100.293 100.293 0 01-8.673-4.967c-3.574-2.294-5.784-4.016-5.784-4.016s-.584.528-1.64 1.432a184.407 184.407 0 01-6.545 5.331q-1.64 1.283-3.522 2.684c-9.245 6.854-21.111-11.446-21.111-11.446s3.338-2.125 4.209-2.537c2.807-1.328 9.4-4.463 15.094-7.248 2.932-1.437 5.62-2.785 7.424-3.742 6.39-3.4 14.334 3.036 14.334 3.036z" opacity=".14"/><path d="M268.061 212.562h-27.362a2.125 2.125 0 01-2.123-2.123v-11.794a15.804 15.804 0 0131.608 0v11.792a2.125 2.125 0 01-2.123 2.125z"/><path class="f" d="M294.083 227.375a4.424 4.424 0 00-3.39 5.875l-7.441 6.845 3.056 5.536 10.372-9.812a4.448 4.448 0 00-2.6-8.443z"/><path class="c" d="M271.694 258.489q-.5 0-1.01-.044a11.888 11.888 0 01-9.576-6.395l-11.922-22.942a6.583 6.583 0 0111.383-6.588l11 24.675 14.964-12.158 8.664 3.373-14.632 16.153a12.023 12.023 0 01-8.871 3.926z"/><path class="f" d="M360.641 281.257l2.5-5.214-18.918-12.139-3.7 7.7z"/><path d="M372.918 268.098a7.255 7.255 0 00-9.685 3.4l-1.689 3.515-2.6 5.425-.637 1.33 6.756 3.246 8.072-16.814zm-13.23 2.68l-1.1 2.341-2.732 5.84-.066.146c-5.836.3-12.058-1.646-17.743-4.359a73.264 73.264 0 01-6.642-3.6 100.504 100.504 0 01-8.265-5.619c-3.387-2.562-5.458-4.449-5.458-4.449s-.623.481-1.745 1.3c-1.5 1.1-3.906 2.812-6.935 4.812q-1.734 1.153-3.717 2.406c-9.747 6.128-23.607 13.591-35.4 15.167-20.706 2.769-15.832-24.862-15.832-24.862l16.479-8.558 7 1.42 7.789 1.576 2.76.561 1.425-.543c2.9-1.109 9.718-3.727 15.606-6.067 3.033-1.208 5.817-2.345 7.69-3.161 6.633-2.9 14.058 4.128 14.058 4.128z"/><path class="f" d="M223.904 285.425a4.424 4.424 0 003.082-6.043l7.077-7.219-3.338-5.37-9.85 10.335a4.448 4.448 0 003.03 8.3z"/><circle class="f" cx="11.033" cy="11.033" r="11.033" transform="translate(247.221 191.023)"/><path class="c" d="M243.901 232.681l9.611 27.247-.058.1c-1.337 2.21-1.774 3.992-1.263 5.155a2.246 2.246 0 001.424 1.228l22.743-15.9-.8-6.371.044-.071c2.2-3.517 2.91-6.7 2.116-9.467a9.137 9.137 0 00-4.338-5.232l-.079-.062-11.343-13.806-15.163 2.694z"/><path class="c" d="M229.285 280.506l-6.438-7.924 15.521-25.621 7.232-22.367.224.073-.224-.073a8.985 8.985 0 1116.023 7.754l-13.285 19.9z"/><path d="M273.918 199.824h-16.727l-.172-2.4-.858 2.4h-2.576l-.34-4.761-1.7 4.761h-4.985v-.236a12.516 12.516 0 0112.5-12.5h2.358a12.516 12.516 0 0112.5 12.5z"/><path d="M257.054 214.764a2.165 2.165 0 01-.376-.033l-12.251-2.162v-20.248h13.486l-.334.389c-4.646 5.418-1.146 14.2 1.354 18.958a2.092 2.092 0 01-.166 2.221 2.114 2.114 0 01-1.713.875z"/><path class="d" d="M440.094 178.485v28.525H313.728l-18.247 21.893 2.084-21.893h-8.879v-28.525z"/><circle class="a" cx="5.17" cy="5.17" r="5.17" transform="translate(336.053 187.535)"/><circle class="a" cx="5.17" cy="5.17" r="5.17" transform="translate(318.605 187.535)"/><circle class="a" cx="5.17" cy="5.17" r="5.17" transform="translate(301.157 187.535)"/><path d="M589.354 285.115H.646a.646.646 0 110-1.292h588.708a.646.646 0 110 1.292z" fill="#cacaca"/></svg>